/* XPM */
static char *bg1741115743[] = {
/* columns rows colors chars-per-pixel */
"70 70 177 2 ",
"   c #01932E",
".  c #04992F",
"X  c #0D9B2F",
"o  c #10972D",
"O  c #149B2E",
"+  c #1C9B2D",
"@  c #008533",
"#  c #008B32",
"$  c #009331",
"%  c #049931",
"&  c #0D9A31",
"*  c #139C30",
"=  c #1B9D31",
"-  c #229D2D",
";  c #299D2B",
":  c #309D29",
">  c #269F30",
",  c #0CA32D",
"<  c #1CA52C",
"1  c #24A42C",
"2  c #2CA42E",
"3  c #22A92B",
"4  c #2AAA2B",
"5  c #3CA127",
"6  c #36AB27",
"7  c #3CAA25",
"8  c #34A52D",
"9  c #3AA42C",
"0  c #32AB2B",
"q  c #3BA92C",
"w  c #35B02A",
"e  c #3EB02B",
"r  c #25A130",
"t  c #28A030",
"y  c #32A530",
"u  c #5DB31E",
"i  c #62B61E",
"p  c #65B91F",
"a  c #6DBC1C",
"s  c #71BE1B",
"d  c #79BF1E",
"f  c #41A526",
"g  c #45AB26",
"h  c #4CAC25",
"j  c #43AC2B",
"k  c #49AE2A",
"l  c #53AF22",
"z  c #44B025",
"x  c #4DB025",
"c  c #49B926",
"v  c #43B529",
"b  c #4CB22A",
"n  c #4AB829",
"m  c #53B226",
"M  c #5BB423",
"N  c #53BB26",
"B  c #5FBA26",
"V  c #53B429",
"C  c #59B729",
"Z  c #53BA28",
"A  c #5CB929",
"S  c #50BC32",
"D  c #61B721",
"F  c #64BC25",
"G  c #6ABD23",
"H  c #62B629",
"J  c #62BC28",
"K  c #6BBA28",
"L  c #73BD22",
"P  c #77C200",
"I  c #74CC00",
"U  c #7ECB02",
"Y  c #75CC0E",
"T  c #74C510",
"R  c #74CC16",
"E  c #79CE14",
"W  c #75C21C",
"Q  c #7AC51C",
"!  c #75CB1C",
"~  c #7DCA1E",
"^  c #6CC225",
"/  c #68C42F",
"(  c #73C524",
")  c #7BC522",
"_  c #77C823",
"`  c #7ECC21",
"'  c #73CB2D",
"]  c #7ECA2A",
"[  c #7AC333",
"{  c #47AE48",
"}  c #79C34D",
"|  c #81CD01",
" . c #82CD0C",
".. c #81CB13",
"X. c #83C41B",
"o. c #88C71C",
"O. c #83CC1D",
"+. c #8ACB1D",
"@. c #87D11C",
"#. c #8BD31B",
"$. c #83C621",
"%. c #81CD23",
"&. c #8ACC21",
"*. c #82CD2C",
"=. c #84CD33",
"-. c #87CE3A",
";. c #89CE3C",
":. c #89D035",
">. c #8BD13C",
",. c #8CCF43",
"<. c #84C849",
"1. c #8ED244",
"2. c #8FD249",
"3. c #93D445",
"4. c #93D24C",
"5. c #98D44C",
"6. c #9FD94C",
"7. c #95D355",
"8. c #9CD352",
"9. c #9ED852",
"0. c #93D35B",
"q. c #9AD45B",
"w. c #9ED85C",
"e. c #A3DA4D",
"r. c #A1D456",
"t. c #A9DB51",
"y. c #A6D75F",
"u. c #BCDE5F",
"i. c #97D460",
"p. c #9ED861",
"a. c #9CD66B",
"s. c #9ED86A",
"d. c #A2D564",
"f. c #A5DA64",
"g. c #AADB67",
"h. c #A4D66C",
"j. c #A6D86E",
"k. c #B6DC64",
"l. c #BCDE61",
"z. c #B0D76F",
"x. c #B4D96C",
"c. c #BADB6D",
"v. c #A2D874",
"b. c #B2DA70",
"n. c #BADA71",
"m. c #BAE368",
"M. c #C1DC63",
"N. c #C4DC72",
"B. c #CAE06F",
"V. c #CDE86B",
"C. c #D0EA65",
"Z. c #DEEE67",
"A. c #DCEC69",
"S. c #CAE171",
"D. c #CEE972",
"F. c #CCE77A",
"G. c #CAE878",
"H. c #D6E374",
"J. c #D5EA74",
"K. c #DCEA72",
"L. c #D3E97D",
"P. c #DDEF7D",
"I. c #E4EF66",
"U. c #E5EE69",
"Y. c #EDF16C",
"T. c #FAF567",
"R. c #F4F46C",
"E. c #FBF56B",
"W. c #E5ED72",
"Q. c #E9EE70",
"!. c #E6F176",
"~. c #ECF274",
"^. c #ECF178",
"/. c #F5F475",
"(. c #BEDC82",
"). c #CCE784",
"_. c #DBEC82",
/* pixels */
"%.%.%.` ` &.^ A %.` %.%.%.%.%.%.%.%.%.%.` %.%.%.` %.%.%.%.%.%.%.%.%.%.%.%.%.%.%.%.%.%.%.%.` V #.b * &.` %.%.%.%.%.%.%.%.%.%.%.%.%.` %.%.` %.",
"%.%.` ( * ! @ B %.%.%.%.%.%.%.%.%.` %.%.%.` ^ ` %.%.` ` ` %.%.%.%.%.%.%.%.%.%.%.%.%.%.%.%.%.2 < # M ~ %.%.%.%.%.%.%.%.%.%.%.` %.%.%.` _ ` *.",
"%.%.%.X.O & o a ` %.%.%.%.%.%.%.%.%.` v @.V * ` %.%.` ( ` %.%.%.%.%.%.%.*.` %.%.%.%.%.%.%.) D   L a Q %.%.%.%.%.%.%.%.%.%.%.%.^ ^ O.= F %.` ",
"%.%.` Q u B o.` ` %.%.` %.%.` %.%.%.` w % $ V Q ` %.` %.` %.%.` %.%.%.` ` %.%.%.%.%.%.%.%.` Q ( %.` %.%.%.%.%.%.%.%.%.%.%.%.%.J $ q # X.` %.",
"%.%.%.` ` ` %.%.%.%.%.%.` ` %.%.%.%.~ p   s a ` %.%.%.%.%.` ` ` ` G #.V q %.` %.%.%.%.%.%.%.%.%.%.%.` ` ` %.%.%.%.%.` %.%.%.` X.  b i Q ` %.",
"%.%.%.%.%.%.` %.%.%.%.%._ ) %.%.%.%.~ Q W %.` %.%.%.%.%.` %.*.O.( $ k @ ( ` %.%.%.%.%.%.%.%.%.` %.%.) ` %.%.%.o.^ ` %.%.%.%.` Q W ` %.` %.` ",
"%.%.%.%.%.%.%.%.%.%.%.%.` ` %.%.%.` >.:.%.%.%.%.%.%.%.` ` 5.J.1.W 6 O M s ~ %.%.%.%.` ` %.%.%.` ` %.%.%.` 8 ` j * %.%.%.%.%.%.%.%.%.%.%.%.%.",
"` %.%.%.%.%.` %.%.%.%.%.%.%.%.` ` -.Z.L.=.%.%.%.%.%.%.` %.j.U.7.~ a ( o.%.%.` %.%.%.` ` ` @.*.f.>.%.~ %.` b $ $ V Q ` %.%.%.%.%.%.%.%.%.%.%.",
"%.` ` &.F Z %.` %.` %.%.%.` ` ` ` =.x.r.*.O.%.%.%.` ` %.` ] ,.U %.%.%.%.%.%.%.%.%.%.%.` ` ~ i.T.(.*.` %.Q a + ~ W ` %.%.%.%.%.%.%.%.` %.%.%.",
"%.^ & ( @ J %.%.%.%.( ( @.> J %.%.` %.] ` ` _ +.( 8 ` %.%.` ` ` %.%.%.%.%.%.%.%.%.%.` %.%.` *.i.:.` %.%.` Q ~ %.%.%.%.` %.%.%.%.%.` %.$.J %.",
"%.X.o X - W ` %.%.%.A $ j @ $.%.%.%.` ` %.` % V $ h ` ` %.` ` ` %.%.%.%._ ` %.%.~ ~ ` %.%.%.` Q ~ ` %.%.` %.%.%.%.%.%.%.%.%.%.%.` t ~ * y &.",
"%.Q u F o.) ` %.%.` X.$ h M W ` %.%.` *.` Q B # g F Q ~ O.` ` ` %.%.%.%.` ` %.` *.4. .` %.%.%.` ` %.%.%.%.%.%.%.%.%.%.%.` ` ` %.Q b $   F W ",
"%.` ~ %.%.%.%.%.%.%.Q a ` O.` ` ` ` :.V.8.` s i +.` :.5.%.O.` %.%.%.%.%.%.%.` %.c.R.i.~ ^ ( O.* ^ ` ` ` %.%.%.%.%.%.` ` :.f.*.%.Q F 5 O.W ` ",
"%.%.%.%.` %.%.%.%.%.%.%.%.%.%.%.%.~ 7.~.j.%.` %.O.*.S./.0.~ %.%.%.%.%.%.%.%.%.` 4.n.=.%.A $ q # O.` ` ` ` %.%.%.` %.O.] n.E.s.~ ` ` Q %.%.%.",
"%.%.%.%.%.%.%.%.%.%.%.%.%.%.%.%.( ` ` ,.*.` %.%.%.` 4.p.*.%.%.%.%.%.%.%.%.%.%.%.O.] ` ` X.$ V i W ` ` %.%.%.%.` %.` ` ` :.i...` %.%.%.%.%.%.",
"%.` %.%.` %.%.%.%.%.%.%.%.n ) A $ _ %.~ ` %.%.%.%.%.` ` %.%.%.%.%.%.%.%.%.` %.&.n ` %.` Q a ` ` ` %.` %.` %.%.%.` _ ` %.%.` %.%.%.%.%.%.%.%.",
"%.%.` ` ` %.%.%.` %.%.%.` b $ . 4 ~ ` %.%.%.%.%.%.%.%.` _ &._ q ` %.` O.%.1 B 8 . &.%.%.%.%.%.%.%.%.%.%.%.` B #.V 1 &.` %.%.%.%.%.%.%.%.%.%.",
"` #.2 B %.` %.%.` ` ( %.~ a # L a Q ` %.%.%.%.%.%.%.%.` % K # x ` %.%.%.` F # < m Q ~ %.%.%.%.%.%.%.%.%.%.Q & q @ A ` %.%.%.%.` %.%.` %.%.%.",
". j @ O.~ %.( A #.2 q %.%.Q W ` %.%.%.%.%.%.%.%.%.%.%.~ m # 7 G Q %.%.%.` a 9 O.W ` ` ~ ` %.%.%.%.%.%.%.%.~ M $ G s ` %.%.%.%.%.%.` %.%.%.%.",
"# j l P 5.3.( $ 9 @ ) Q %.%.%.%.%.%.%.%.` ` %.%.%.%.%.Q a M +.Q ` %.%.%.%.~ ` %.` ~ *.5. .` %.%.%.%.%.%.%.` W ( o.` ` ` %.%.%.%.` ` %.%.%.%.",
"i ) ` 1.Y._.[ 5 4 p W ` ` ` %.%.%.%.%.%.) ( %.%.%.%.` %.%.` %.%.%.%.%.%.` %.%.%.` ` x.R.a.%.%.%.%.%.%.%.` %.%.%.%.%.%.%.%.%.%.` %.%.` %.%.%.",
"%.O.%.` q.,.~ W Q %.` ~ *.>.U %.%.%.%.%.` ` %.%.%.%.%.%.%.%.` %.%.%.%.%.` %.%.%.@.` 1.b.=.%.%.%.%.` %.%.%.%.` %.%.%.%.%.%.%.%.*.%.%.*.%.%.%.",
"%.%.%.%.Y R ` %.%.` ` *.m.Q.4.~ %.%.%.%.%.%.%.%.%.%.%.%.` ) ` %.%.%.%.%.%.%.%.%.%.O.%.` %._ &.O.y ( ` %.%.%.%.%.%.%.%.%.%.%.%.%.%.%.%.%.%.%.",
"O.~ ` %.t.k.*.` %.` L ` w.N.;.` %.%.&.^ ` %.%.%.%.%.%.%.%.~ ` %.%.%.%.%.%.%.%.%.%.%.%.%.%.y j 1 $ &.` %.%.%.%.%._ ` %.%.%.%.` %.%.%.` %.%.%.",
"E 3.| -.K.J.;.~ ` ` ` ` ` *.` %.n ` A $ ( %.O.%.%.` %.%.%.%.%.%.%.%.%.%.%.%.%.` ` %.%.%.` s @ k B Q ` %.%.%.%.%.` %.%.%.%.%.%.$.J ` %.%.%.%.",
"g.R.s.U -.-.U :.x.:.` ` ` ` %.` V $   0 o.%.%._ ( %.%.%.%.%.` ` %.%.%.%.` %.%.%.&.^ ` %.%.W i $.Q ` %.%.%.%.%.` %.%.` %.` y ` 4 = &.%.%.%.%.",
"4.N.:.%.^ ^ %.j.E.v.` ` %.%.%.` a   L W ^ B @.$ A %.` %.%.%._ ` %.%.%.%.%.` q %.j = &.%.%.%.%.%.` %.` %.%.%.%.%.%.%.%.%.` h $ $ M Q ` %.%.` ",
"` A 0 ! # F %.=.w.Y %.*.` %.%.` Q W ` ~ ^ # 6 @ X.` %.%.%.%.%.%.%.%.%.%.%.` 0 % $ M Q ` %.%.%.%.%.%.%.` ` %.%.%.%.%.%.%.Q p ; O.W ` %.%.%.%.",
"%.)   < # X.` O.` %.t.D.-.` ` %.%.%.%.%.Q ; m a Q ` %.%.%.` %.%.` %.%.%.%.~ p + X.W ` %.%.%.%.%.%.%.` >.>.` ` %.%.%.%.%.%.` Q %.%.%.%.%.%.%.",
"` Q 5 B Q Q ` %.` *.N.H.1.` ` ` ` ` >.w.%.W *.p.*.%.` %.%.%.%.%.%.%.%.%.%.` Q W %.%.` %.` %.%.%.` ` :.Z.P.>.` %.%.` ~ ` %.%.%.%.%.%.%.%.%.` ",
"%.` Q %.%.%.%.%.%.` =.:.~ &.^ ` ` :.J.^.,.| b.E.v.` ` Q %.%.%.%.%.%.%.%.%.%.` ) %.%.%.%.%.` ~ >.:.` ] d.r.*.` %.` %.1. .%.%.%.%.%.%.%.%.%.%.",
"` %.%.%.` %.%.%.%.%.` v ` Z % ` %.` 1.4.%.` ;.h.*.%.` %.%.%.%.%.%.%.%.%.%.%.` ` %.%.%.%.%.( -.I.).:.` ` ` ` %.` %.f.R.a.` ` %.%.%.%.%.%.%.` ",
"%.%.%.%.%.%.%.%.%.%.` b $ $ j ~ ` ~ ` ` %.%.` ` ` %.` ` %.%.%.%.%.%.%.%.%.%.%.%.%.%.%.%.%.%.] b.9.%.` %.%.%.%.` %.4.N.;.` ` %.%.~ %.o.A ` ` ",
"%.%.%.%.%.%.%.%.%.%.) a   s s Q *.=.~ ` %.%.%.%.%.` *.*.~ %.%.%.%.%.%.%.%.%.%.%.%.%.%.%.%.` ` E ! *.` ` &.F ^ %.%.~ *.` ` %.` %.q C b $ $.%.",
"%.%.` %.` %.` ` %.%.` Q Q %.` *.u.J.1.` ` ` %.%.` %.e.D.>.%.` %.%.` %.%.%.%.%.%.%.( #._ t ` ` *.m.m.S 0 K @ ( =.>.~ ` %.%.%.%.~ G # 3 6 Q ` ",
"%.` %.*.` ` ` %.%.%.%.%.%.%.` =.c.S.;.` ` ` %.%.` *.n.K.1.O.+.^ ( ` %.%.%.` %.%.$.* k $ 0 &.` ;.W.N.[ # 1 + ( M.!.1.O.` %.%.%.` d : ~ Q ` ` ",
"%.%.( ^ @.= J %.%.%.%.%.%.%.%.` *.=.~ %.%.%.%.%.%.` *.-.c C K # ( %.%.%.%.%.` ` Q F # h i Q %.~ =.=.Q f G X.` d.c.=.` %.` %.` %.` ~ %.%.%.%.",
"%.%.J $ q @ X.` %.` ` ` %.%.%.%.` ` %.%.%.%.%.%.%.%.@.~ ^ # < o Q ` %.%.%.%.` ` ~ W i o.~ ` %.%.` ` ` ~ ` O.` ` ] ` #.j ^ %.%.` ` *.%.%.%.%.",
"%.` X.  V i Q ` %.` W %.%.%.%.%.%.%.%.%.%.%.` %.%.` ` ` W : F W ~ %.%.%.%.` ` ] %.~ %.%.%.%.%.%.` ` %.%.` ` %.%.v 3 k # %.` %.%.%.%.%.%.%.%.",
"%.%.~ a Q %.` %.` %.` %.%.%.%.` %.%.` ` %.%.%._ ^ %.` ` ~ Q %.%.%.%.%.%.` ( ` %.%.%.%.%.%.&.( ^ %.%.%.%.%.%.%.` Q @ f h Q ` %.%.%.%.%.%.%.%.",
"%.%.%.%.%.%.%.%.%.%.%.%.%.%.%.%.` ` %.%.( j @.$ B %.%.` %.%.%.` %.%.%.%.` ` ` %.` %.%.^ e ~ $ J %.%.%.%.%.%.%.` W M $.Q ` %.%.%.%.%.%.` %.%.",
"%.%.%.%.%.%.%.%.%.%.%.%.%.%.%.%.` %.` O.( $ < # d ` %.%.%.%.%.%.%.%.%.` %.` ` *.:.` O.( $ 3 # X.` %.%.%.%.%.` %.O.%.%.%.%.%.%.%.%.%.%.%.%.%.",
"%.%.%.%.%.%.%.%.%.%.` %.%.%.%.%.%.%.%.` W f V W Q ` %.%.%.%.%.%.` ` %.%.&.^ *.l.!.2.~ W q M Q Q ` %.%.%.%.%.%.%.%.%.%.%.%.%.` ` %.%.%.*.%.` ",
"%.%.%.%.%.%.%.` %.%.%.( ( %.%.%.%.%.%.%.%.Q ` %.%.%.` %.%.%.%.%.%.` j +.4 2 *.d.B.-.` ` Q ~ %.%.%.` %.` %.%.%.` %.%.` G @.J = ` %.%.%.` ` %.",
"%.%.%.%.%.%.` %.F B ( $ K %.%.%.%.%.%.` $.%.%.%.%.%.%.%.%.%.%.%.%.` - , @ F Q ` ] ` ` ` ` %.` %.` %.%.%.%.( ` %.%.%.&.< q # b ~ ` %.%.` ` %.",
"%.%.` %.%.%.%.%.G # 3   o.` %.%.%.%.%.%.%.%.%.%.%.%.%.%.%.%.%.%.` Q M + d W ` O.` %.~ :.7. .` %.%.` Z @.C & ` %.%.%.Q i @ C a Q ` %.%.%.%.` ",
"%.%.` %.%.` %.` W + F G Q ` %.%.%.%.%.` %.%.%.%.%.%.%.%.%.%.%.%.%.` Q ` %.%.%.` %.` ` c.T.a.~ %.%.` t , # x ~ ` %.%.` W ^ &.~ ` %.%.%.%.%.%.",
"%.%.` ` ` %.%.%.` W ` %.%.` ` &.*.j ` %.%.%.%.%.%.%.%.` %.%.%.%.%.%.%.%.=.~ %.%.%.@.` 2.b.=.` %.%.~ G $ L a ~ ` %.` %.` O.%.` ` %.%.%.%.%.%.",
"%.%.%.` ` ` %.` %.%.%.%.%.` = H % 2 &.O.%.` %.%.%.` ` %.) Z %.%.%.` %.3.A.4.%.` ` &.$.q ` %.%.%.%.` W W %.%.%.%.%.%.%.%.%.%.` ` %.%.%.%.%.%.",
"%.%.` %.%.` %.%.%.%.%.%.%.` B # 4 M Q ` %.%.%.%.%._ = ` $ v %.%.%.%.%.p.W.7.` ` & H $ 1 O.%.%.%.%.%.%.%.%.%.%.%.%.` %.%.%.%.%.%.%.%.%.%.%.%.",
"%.%.%.%.%.%.%.%.%.%.%.%.%.~ a g @.Q ` %.%.%.%.%.%.` 0 $   a ` %.%.%.` %.;.` %.) B @ 4 u Q ` %.%.%.%.%.%.%.%.%.( ^ %.%.%.%.%.` ` %.%.%.%.%.%.",
"%.%.%.%.%.*.%.%.%.%.%.%.O.%.` O.%.%.%.%.%.%.%.%.%.Q i z O.W ` %.%.%.` ` ` ` %.` a m @.Q ` %.%.%.%.` ` %.( y O.$ V %.%.%.` %.=.%.%.` %.%.%.%.",
"%.%.%.%.%.%.%.%.%.~ %.` &.^ ) %.%.%.%.%.%.%.%.%.%.` ~ ` %.%.%.%.%.%.%.%.%.` ` %.` O.` %.%.%.%.%.` ` ` %.$.% , # s ` %.%.` -.K.y.` ` ` %.%.%.",
"%.%.%.%.` %.%.` %.%.n ^ A $ ( %.%.%.%.%.%.%.%.%.%.%.%.%.` ` ` ` %.%.%.` %.` ` ` %.%.%.%.%.%.%.%.%.%.%.` Q l h X.Q ` %.` U >.J.z.U ` ` ` %.` ",
"%.` %.%.%._ _ %.` ~ B # X ; ~ %.%.%.~ %.%.%.%.%.%.%.%.%.%.%.` ` &./ N %.O.` >.N.>.%.%.` %.%.%.%.%.%.%.%.` Q ~ ` %.%.` q.6.*.' =.` :.>.*.` ` ",
"%.%.J ^ ` $ ^ %.:.*.s   L a ~ ~ %.| 5.>.` %.%.%.%.%.%.%.%.%.^ = ^ @ ^ &.` ` x.E.a._ ` %.%.%.%.%.%.` %.%.%.%.` ` %.%.` N./.1.~ ` ~ d.T.q.~ %.",
"%.O.B # r $ X.:.C.G.=.W %.@.%.` ~ 1.R.).=.` %.%.%.%.%.%.` ` X.  , + W Q %.O./ } @.= J %.~ %.%.%.%.%.( &.#.q ^ %.%.%.` ;.a.*.` %.( <.F.{ Z %.",
"%.~ Q   M a ! =.N.x.*.~ ` >.S.3.` *.d.3.` ~ %.%.%.&.F ^ %.` Q u F o.~ ` %.%.F $ q @ O.` %.%.%.%.%.%.j 4 j # &.` %.%.O.` ~ ` %.%.J   k @ d %.",
"%.%.~ W ` %.%.` *.E :.4.I a.R.h.%.%.` ` %.` %.Z q G # ( %.%.` ) O.%.%.%.` ` X.. k u W ` %.%.%.%.%.` Q @ j l Q ` %.%.%.%.%.%.%.` o.  g m s ` ",
"%.%.%.%.%.%.%.%.~ *.S.~.2.I 2.T #.J q ` %.%.` W # 1 O Q ` %.%.%.%.~ %.` ) ` ~ s Q %.%.%.%.%.%.%.%.` W M X.` ` %.%.%.%.%.%.%.%.` Q a ( ` %.&.",
"%.` ` %.%.%.%.%.` ` 5.h.*.%.( $ H @ M ` %.%.` Q 9 G W ~ %.%.%.%.%.%.%.` ` ` %.%.` %.%.%.` ` ` ` ` %.` ` &.` %.` %.%.` ` ` ` ` %.%.%.%.%.%.` ",
"%.` ` %.%.%.%.%.%.O.` ` ` %.Q m   h a Q %.` %.` O.` %.%.%.%.%.%.%.%.%.%.%.%.%.%.` %.%.&.^ ` %.` ` %.%.%.%.%.%.%.%.%.` ` ` ) ` %.%.%.%.%.%.%.",
"%.` ` %.%.%.%.%.%.%.` ` ` ` >.[ F @.) ` ` %.` %.%.%.` %.%.%.` %.%.%.%.%.%.%.%.%.%.b ( A $ _ %.%.` %.%.%.%.%.%.( &._ t ` %.` ` %.%.%.%.%.%.%.",
"%.%.%.` %.%.%.%.` %.` ) ` >.U._.-.O.%.` ` %.%.%.%.%.%.%.%._ ` %.%.` %.%.` %.%.%.` C #   4 ) ` %.%.%.%.%.%.%.%.= j $ 4 o.` %.%.%.%.%.%.%.%.%.",
"%.%.%.%.` ` #.v K %.%.` ` *.a.8.` ` %.%.%.%.%.%.%.%.%.%.%.` ` %.` ` ` ` ` ` %.%.Q a   L s ~ ` %.%.%.%.` ` %.` F # l D Q ` %.%.%.%.%.%.%.%.%.",
"%.%.%.%.A = b @ Q %.%.%.%.` ` ` %.( F %.%.%.%.%.%.%.%.%.%.%.%.' ^ #.2 n %.` %.%.%.` Q ` ` %.%.` ( #.^ y ` %.O.s p o.` ` %.%.%.%.%.%.%.%.%.%.",
"%.` ` ` X.# q 7 W ~ %.%.%.%.( r ~ # A %.%.%.%.%.%.%.%.%.%.%.%.^ # j @ ~ ` %.%.%.%.%.%.` ) %.%._ $ H @ V ~ %.%.` %.%.%.%.%.%.%.%.%.%.%.%.%.%.",
"` ` ` ` Q u ( %.~ %.%.%.%.O.X.= X   ^ Q %.%.%.%.%.%.%.%.%.%.O.Q ; 8 D W ` %.%.%.%.%.` %.%.%.%.~ V # z a Q %.%.%.%.%.%.%.%.%.%.%.%.%.%.%.%.%.",
"%.%.%.%.~ ~ O.%.%.%.%.%.%.~ ~ l M o.Q ` %.%.%.%.%.` %.%.%.%.%.` W ( %.` %.` %.%.%.%.%.%.%.%.%.` a F o.` ` %.%.%.%.%.%.%.%.%.%.%.%.%.%.` %.%.",
"%.%.%.%.%.%.%.%.%.%.%.%.%.%.` ` ~ ` %.%.` %.%.%.%.%.%.%.%.%.%.%.%.%.%.%.%.%.%.%.%.%.%.%.%.` ` %.` %.%.%.%.%.%.%.%.%.%.%.%.%.%.%.%.%.%.%.%.%."
};
