/* XPM */
static char *collectible1742303294[] = {
/* columns rows colors chars-per-pixel */
"70 70 243 2 ",
"   c #717D24",
".  c #824F15",
"X  c #974A18",
"o  c #8A5417",
"O  c #995519",
"+  c #945918",
"@  c #A24E1A",
"#  c #A5521A",
"$  c #A4571B",
"%  c #AE5B1C",
"&  c #B15D1D",
"*  c #8C6A1C",
"=  c #916C1D",
"-  c #91791E",
";  c #B5681C",
":  c #995924",
">  c #AB5D2A",
",  c #9B6D29",
"<  c #897721",
"1  c #967524",
"2  c #A66622",
"3  c #B76A26",
"4  c #A97823",
"5  c #B87725",
"6  c #AD7238",
"7  c #C8711A",
"8  c #D67C1D",
"9  c #C26C24",
"0  c #C67827",
"q  c #D67E25",
"w  c #D47E2B",
"e  c #C47838",
"r  c #B97A44",
"t  c #BD766E",
"y  c #A1637A",
"u  c #CE7D4B",
"i  c #C87955",
"p  c #D27D6E",
"a  c #14952C",
"s  c #1C9D2C",
"d  c #27982D",
"f  c #239C2C",
"g  c #2C9334",
"h  c #1BA32B",
"j  c #24A22B",
"k  c #2BA52B",
"l  c #2CA829",
"z  c #39A927",
"x  c #33A62A",
"c  c #34AA2B",
"v  c #3CAB2A",
"b  c #33A830",
"n  c #78871E",
"m  c #5EB61F",
"M  c #7AA41C",
"N  c #64BA1F",
"B  c #6CBD1E",
"V  c #73BE1E",
"C  c #4D9A2A",
"Z  c #748C25",
"A  c #47AC27",
"S  c #4AAD26",
"D  c #43AC29",
"F  c #54AF26",
"G  c #4BB127",
"H  c #4DB229",
"J  c #53B325",
"K  c #5BB522",
"L  c #57BB27",
"P  c #5CBB26",
"I  c #52B429",
"U  c #50A738",
"Y  c #67B726",
"T  c #63BC24",
"R  c #6BBD22",
"E  c #79BC23",
"W  c #71B22E",
"Q  c #6EC11F",
"!  c #74C31E",
"~  c #78C61A",
"^  c #79C61E",
"/  c #7CC91F",
"(  c #67C025",
")  c #6CC224",
"_  c #74C522",
"`  c #7AC621",
"'  c #78C727",
"]  c #7ECB22",
"[  c #73C334",
"{  c #6EAB50",
"}  c #858B1C",
"|  c #8A8A1D",
" . c #8D951F",
".. c #84A91F",
"X. c #8A8B21",
"o. c #988623",
"O. c #889922",
"+. c #959628",
"@. c #958E33",
"#. c #BB8928",
"$. c #AD8F33",
"%. c #87A821",
"&. c #85B623",
"*. c #82BD22",
"=. c #99BB27",
"-. c #99AC35",
";. c #87BE33",
":. c #98B232",
">. c #A5AA28",
",. c #B8A828",
"<. c #A8BA27",
"1. c #B7B82B",
"2. c #B1AE36",
"3. c #B8B935",
"4. c #D7811E",
"5. c #EC901E",
"6. c #CB8529",
"7. c #D48129",
"8. c #D9882A",
"9. c #C89127",
"0. c #D9952B",
"q. c #C78837",
"w. c #DF8C32",
"e. c #C29735",
"r. c #D99634",
"t. c #E68D2C",
"y. c #E6962B",
"u. c #F69C2A",
"i. c #E48D33",
"p. c #E89835",
"a. c #F39E36",
"s. c #C8AA2B",
"d. c #DAA92B",
"f. c #C8A633",
"g. c #D8A937",
"h. c #CFB231",
"j. c #C4B834",
"k. c #E3A42D",
"l. c #E6AA38",
"z. c #ECAB3C",
"x. c #F8A336",
"c. c #F4A33A",
"v. c #E0B23F",
"b. c #82CC17",
"n. c #83CE1B",
"m. c #82C222",
"M. c #8DC424",
"N. c #81CD23",
"B. c #8BCA24",
"V. c #89C32B",
"C. c #84CD2B",
"Z. c #89CD2B",
"A. c #94C425",
"S. c #95C629",
"D. c #83D025",
"F. c #85C335",
"G. c #86CD32",
"H. c #8ACE33",
"J. c #8CCF3B",
"K. c #95CA37",
"L. c #8BD035",
"P. c #8ED13B",
"I. c #92D33C",
"U. c #A5C22B",
"Y. c #A9C93C",
"T. c #BC8F4F",
"R. c #9AB24A",
"E. c #B2AA4C",
"W. c #908B76",
"Q. c #93897D",
"!. c #A69D6F",
"~. c #C89150",
"^. c #E39353",
"/. c #CEAF55",
"(. c #E8A547",
"). c #F8AE49",
"_. c #FCB249",
"`. c #ECA756",
"'. c #E9B858",
"]. c #F9B356",
"[. c #F9B55B",
"{. c #D98664",
"}. c #CD916A",
"|. c #EA9774",
" X c #EA9779",
".X c #D4B16B",
"XX c #F9B962",
"oX c #F2B273",
"OX c #92C84D",
"+X c #94D343",
"@X c #98D446",
"#X c #9BD44D",
"$X c #9ED654",
"%X c #A8CA44",
"&X c #B4C94A",
"*X c #B7CB55",
"=X c #A1D554",
"-X c #AAD859",
";X c #B4D95B",
":X c #BCE15C",
">X c #AFCF62",
",X c #B7DB62",
"<X c #BDE165",
"1X c #C2C54B",
"2X c #CDCD56",
"3X c #C3CB58",
"4X c #C5E45E",
"5X c #DBC86E",
"6X c #C6D26C",
"7X c #E6CA72",
"8X c #E7CA77",
"9X c #F8C47A",
"0X c #C3E266",
"qX c #CDE664",
"wX c #D3E765",
"eX c #747A82",
"rX c #A350B1",
"tX c #B962A8",
"yX c #C667AD",
"uX c #A53CDD",
"iX c #A83EE5",
"pX c #A352C9",
"aX c #BD56D4",
"sX c #AD40E9",
"dX c #B449E7",
"fX c #D26DCF",
"gX c #CD66D5",
"hX c #D876D8",
"jX c #C455F6",
"kX c #D068E9",
"lX c #B683B0",
"zX c #D79F88",
"xX c #EB9693",
"cX c #F5AE92",
"vX c #D284AB",
"bX c #E487A6",
"nX c #E688BB",
"mX c #DCCE80",
"MX c #F9C985",
"NX c #F4CE8C",
"BX c #E3D589",
"VX c #BF84C0",
"CX c #EB8CC9",
/* pixels */
"N.N.N.] _ N.T T ' N.N.N.N.N.D.N.] D.] D.] D.] ] D.] D.] Z.&X8XNXNXMX9X[.(.e O 1 %.N.N.N.N.` P ! D l ` N.N.N.N.D.N.N.N.N.N.N.N.N.D.N.] N.] D.",
"N.N.] ) c L f K ` N.N.N.N.N.N.N.D.D.] ] ] / ) ` ] D.N.N.V.&X5XMXNX9X7X].(.q.$ 1 O.*.m.N.N.` v j s J ~ ] N.N.N.N.N.N.N.N.D.N.N.] ] ] _ ' ] N.",
"N.N.] _ k j j N / N.N.N.N.N.N.N.D.] / L ( I c _ N.N.M.<.1.f.T.~.E.3X1X&Xj.e.0 4 o. .%.b.] ` K j K V ] ] N.D.N.D.N.N.D.N.N.N.] _ T ) c T ] N.",
"N.N.] ~ K K ! / ] N.N.N.N.N.N.N.] ] _ D h h G ! / n.=.1.d.q.4 , -.S.K.V.=.,.y.7.2 * } &.N.] ! ) / ] ] N.] N.N.N.N.N.N.N.N.N.] P s v f V ] N.",
"N.N.N.] ] ] N.] N.N.N.] ] ] ] N.N.] / K f K B ] Z.K.3.f.w.5 , < M Y ! J Y <.g.9.; 2 o.%.&.m.N.N.] N.` ] N.N.N.N.N.N.N.N.N.] ] B j G K ! ] N.",
"N.N.N.N.N.] N.N.N.N.D.N.` ] N.N.D.] ] ! Q ] N.Z.%X3X/.$.5 o.+.%.W k v d Y =.<.,.9.6.4 o.X.%.N.N.] N.] ] ] ` ] ` ) ' ] N.N.D.] / B ! / ] N.N.",
"N.N.N.N.N.N.N.N.N.N.N.N.N.] N.N.] D.P.P.N.N.C.Z.*X5X.Xr > o.E.I.V v x F V / B.U.h.y.0 2 1 O.n.M.N.' N.N.' I ( D c _ N.N.N.N.N.N.N.N.N.N.N.N.",
"N.N.N.N.] ] ] N.N.N.N.N.N.N.N.] ] P.4X<XP.S.Y.&X/./.~.$.o.R.6X+X/ B R / N.N.n.A.<.s.9.0 5 o.%.R.K.C.] N.^ G s s J ! n.N.N.N.N.N.N.N.N.N.N.N.",
"] ' _ N.( T ` N.D.] ] ] ] ' ' ] N.J.-X=XZ.K.;X5X~.r 4 +.&.V.L.b.n.' N.N./ N.N.B.A.U.,.0.7.4 , T.>XC.N.N./ P z N ! ` ] N.N.D.N.N.D.D.] N.] N.",
"] ) x J f P / D.N.] _ ) _ v ( ] N.N.H.H.K.&X.X.XT., < %.m.D.K.K.S.S.A.A.M.m.N.N.N.B.<.d.9.5 2 o.+.&.m.n./ ^ ! ] ] ] D.N.N.N.N.N.] ' ] _ T ] ",
"] _ k j k R / N.N.] P s v f _ ] N.N.D.Y.*XE.~.T.@.Z O.*.B.K.*X*X1X3.3.2.>.:.N.] n.n.A.1.,.9.0 #.o.O.&.N.N.N.N.N.N.N.N.N.N.N.N.N._ D P k D / ",
"N.~ K K ` ~ / N.N.] V j A K ! ] N.N.L.3X8X.Xr : Z Z E N.D.&X5X9X7X`.(.r.e.>.B.] L.I.B.n.<.s.y.0 2 = O.m.] N.N.N.D.N.N.N.N.C.] n.^ S s s L ! ",
"N./ / ] ] N.N.N.D.] ^ R ! ` / N.N.U.3./.}.~., < O.*.+X@XH.&X5XXXoXoX|.p t $.V.C.;XwX#X] *.<.e.#.5 4 o.O...N.N.N.N.N.N.N.P.-XL.N.~ T A B ! ] ",
"N.N.N.] N.N.N.N.N.] ] ] ] N.N.N.N.d.g.~.6 @.+.%.E F.,XqX=XY.'.[.cXcXbXyXtXW.C.] @X;XI.' Y C W +.9.w 4 = } N.N.N.N.N.N.C.-XwX$XD.] / ! N.N.N.",
"N.N.N.N.N.D.N.N.N.D.] D.] ] ] ` E x.p.5 O * %.N.N.N.@X=XH.3./.oXxXnXCXaXrXlXQ ] ] G.] ] R j F >.k.y.; O * N.N.N.] ] ] N.P.#XN.N.N.N.N.N.N.N.",
"N.] N.N.] N.N.D.N.] D.] ] P T L x ].`.r X < %.N.N.N.' C.C.E.zXnXhXhXkXjXpXW._ ! L _ N.] ` R ` 1.d.t.3 X * N.] ] ' _ ' N.] C.n.N.N.N.N.N.N.N.",
"N.N._ / ] N.N.N.N.] ] ] ] I s h v 9XXXT.: 1 %.N.N.N.N.] [ !.VXkXkXjXjXdXpXeXU v k _ N.] N.] n.1.d.t.; X * _ T ! H D ` N.N.N.N.N.N.N.N.N.N.N.",
"_ _ v R ] N.] ] N._ _ ] ^ N j K ) 5X.X~.3 1 +...*.m.N._ b W.lXhXkXkXjXdXpXeXg c J ! n.n.m.A.=.,.9.8 4 * | _ c x d L ` ] N.N.N.N.N.N.N.N.N.N.",
"h z f B N.N.' P ) v H ` ] / Q ] ] %X&Xf.6.0 4 < %.*.N.~ L { }.xXnXCXgXdXpXQ.U _ ! ` / N.A.<.,.#.5 2 o. ...! J j K B / N.N.N.N.N.N.] N.N.N.N.",
"a D F ~ @X+X) j x d Y / ] ] ] ] N.C.A.1.k.8.2 * X.&.m./ _ -.`.|.xXCXhXdXpXQ.W N.] ] K.K.<.,.8.5 $ *  .n.m.] ! B ` / N.N.N.N.N.N.] N.N.N.N.N.",
"K _ ` P.qX<X[ D v K V / / N.N.N.n.D.B.<.s.f.#.r $.+.%.&.F.R..XbXnXhXkXjXpXQ.W N.] C.&X2X2.9.5 4 - } %.N.N.N.N.N.N.N.N.N.N.N.N.N.N.N.N.N.N.D.",
"/ n.N.C.#X+X' V _ ~ / N.L.P.n.N.N.N.N.A.A.U./.`.$.#.o.=.F.!.vXhXkXkXjXdXpXQ.;.N./ B.3.g.9.; % 1 O.V *.N.N.N.N.N.N.N.N.D.D.N.N.N.N.N.N.N.N.N.",
"N.N.D.] ] n.N.N.N.] ] C.-XqX+XN.N.N.N.' N.K.*X'.~.5 #.%.:.lXaXjXjXjXdXiXpXW.F.B.M.A.,.6.0 2 * < F R N.N.N.N.N.N.N.] N.N.N.N.N.N.N.N.D.N.N.N.",
"n.N.n.Z.#X-XH.N.N.] ` D.$X;XP.] ] ] ] _ ' M.Y.&Xf.8.6.o.O.y aXiXjXjXiXiXpXQ.;.S.<.s.#.5 2   Z C d ` N.N.N.N.N.N.' ] N.N.N.N.N.N.N.N.N.N.N.N.",
"D.I.n.L.0X0XJ.N.C.N.] ] D.L.N.] P ( H k _ N.N.S.1.k.w.5 > rXrXiXiXjXsXuXrXy ' U.s.k.0 $ = n g A K ! ] N.N.N.D.N.N.N.] N.N.' ] ' T ' N.N.D.N.",
"-XwX#Xn.J.P.b.L.-XP.N.N.] ] ] ` H h h v ! N.N.E =.s.s.~.i t tXtXgXkXfXaXtXt >.>.9.6.4 - } M Y ` / ] N.N.N.N.N.] N.N.N.N.' G P z c ` N.N.N.N.",
"#X,XP.] T ) N.=XwX$XC.] N.N.N.` N j K B R P R j E A.3./..XzXbXbXbXbXbXbXxX}.f.#.5 2 o.O.*.*./ n.] ] N.N.N.D.N.N.N.N.N.N._ S h h J ~ N.N.N.N.",
"' ( G P j T N.J.#XD.C.L.D./ D.] ^ Q ] ` T j x f R n.K.3X7XoXoX X X X X X{.^.r.#.2 * | *.N.N.N.N.N.N.] N.N.N.N.D.N.N.N.N./ N z B ! / N.N.N.N.",
"] ( s k f B / N.N.C.=X:XP.] D.] / ] D.N.! z I T ` ] H.%X*X/.{.^.p i i i r T.>.X.X.| ..m.N.N.N.N.N.N.N.I.I.C.] ] D.N.D.] N.~ _ N.N.N.N.N.N.N.",
"] _ A K B ~ ] N.] G.,X,XP.D.] N.] D.+X$XC.! F.$XH.N.] V.=.>.#.e 9 > > @ : X.&.E *.*.m.N.N.] N.N.N.N.L.4X0XP.] D.N.] N.n.N.N.N.N.N.N.N.N.N.N.",
"] ] _ ] ] N.N.N.D.N.J.J.N.' ) ] ] L.<XqXI.n.-XwX$XC.Z.K.%XE.~.q.e u 6 > 6 @.-.;.V.N.N.N.N.] N.I.P.] G.$X$XC.] D.] Z.I.B.N.N.N.N.N.N.D.N.N.N.",
"N.] N.N.N.N.N.N.N.] ` L ( H l ) ] D.+X+XC.N.J.=XJ.' K.*X.XzX|.}.{.p {.p i }.~.E.K.N.N.N.N.' P.4X<XP.] C.D.D.] ] D.=XqX$XN./ N.N.N.N.N.] ] N.",
"N.N.N.N.N.N.N.N.D.] ' I s s A _ ] ] ] C.N.N.] C.] N.OX.XcXcXcXcX XcX X X XxX|.T.R.n.B.N.N.] G.-X$XZ.] ] N.] ] N.N.#X;X+X' / D.] ` ' ] T _ ] ",
"N.N.N.D.D.N.N.N.N./ / N j K Q ] L.L.N.D.] D.] N.N.N.+X*X6XmXcXcXoX^.{.p i ~.E.E.;.N.D.N.' ] ] ] D.D.' ] ] Y R N.N.N.H.N.N.N.D.` H J A j _ N.",
"N.D.N.N.] N.N.] N.] / / Q ` ] G.-X0XP.] ] N.] D.N.C.-X0X>X>XBXcXoX^.w > : @.:.K.N._ ` T G _ ] L.,X-X( v L f T G.J.C.] / N.N./ / K f l v ! ] ",
"N.] N.] ] _ ` N.N.D.] N.N.] ] G.;X;XP.] ] ] N.N.N.C.>X0XOX>XBXMX].i.9 O   X.` ] ` c v f v ^ ] P.<X,X[ h k x [ ;XqX+X] N.D.N.N.] B S B ! ` ] ",
"N.] ) ) ) x T N./ ] N.N.N.N.N.N.G.L.N.] ] N.N.N.N.N.H.G.[ OXmXMX`.p.0 O X < V b.~ J d A T ~ N.N.P.G._ S T ! ' -X,XL.] ` / N.N.] ] _ N.N.] D.",
"N.] T s z f R N.N.n.] ] N.N.N.N.] N.N.N.N.D.N.N.N.N.N.' [ { mX8X`.i.0 $ . < *./ ` V T ` ~ ] N.N.N.' ] ` / ] ] C.[ _ ' J ) ] N.N.N.N.N.N.N.N.",
"N.N.R j J K ! ] N.] ` ] D.N.N.N.] D.N.N.N.N.] N.] N.N./ _ R.8XMX[.p.0 % + | V N.N.] n.N.N.N.] N.N.] D.] ] N.N.] L l D f _ ] N.N.N.N.N.N.N.N.",
"N./ / ) _ ] / N.N.N.] N.N.N.N.N.N.N.N.] ] ] ] ) ) ] N.N.C.-XBXMXXXc.7.% + | *.N.N.N.] ' ] N.) ) ] N.N.N.N.N.N./ B j A S ! ] N.N.N.N.N.N.D.N.",
"N.N.N.N.N.N.N.N.N.N.] N.N.D.N.N.] ] N.] ) H ( j K ' N.N.Z.*XBXMXXXc.7.& = | *.N.N.N.N.R H ( j T ] N.N.D.N.N.N./ ! K _ _ ] N.N.N.N.N.N.N.N.N.",
"N.N.N.N.N.N.N.N.N.N.D.N.N.N.N.N.N.N.N.N.) j j s R / N.N.D.*X7X9X[.c.7.& + | n.V.I.N.' R s j s B / ] N.N.D.N.N.N.] / n.] N.N.N.N.N.N.D.N.N.N.",
"N.N.N.N.N.N.N.N.D.N.] ] ] ] D.] N.N.N./ ! S J B ~ N.N.N.D.&X7X7X].c.7.% + n *.;X0X+XN.! A K B / N.N.] N.N.N.D.N.N.N.N.] N.' _ ] D.N.N.N.N.] ",
"N.N.N.N.N.N.N.N.] ] ] ) ' ] ] D.N.N.N.N.] ! ` ] N.N.N.N.Z.&X7X9X].c.7.% .   ;.=X;XI.' ] ! ` ] N.N.N.D.N.N.] ] N.N.N.] ) ` L v _ ] N.N.] ] N.",
"N.D.N.N.D.N.] ] R L P j T N.N.N.N.N.N.] ] N.N.] N.N.N.N.D.&X8X9X[.c.q & o   V Z.H.N.] N.N.N.N.] ] ] ] D.' ) ] N.N.N.~ v c f S _ n.] N.N./ N.",
"N.N.N.N.N.N.N.] T f k f _ N.N.N.N.N.D.N.N.N.N.N.N.N.N.N.D.*XBX9X].c.8.& O | *.N.N.N.] J.@XD.N.N.N.` P ) I x _ ] N.N.~ J f J B ~ / D.N.] D.N.",
"N.N.N.N.N.] N.] R x J N ! N.N.N.N.] ] D.N.N.N.N.N.N.N.N.Z.*XBXMX].u.7.& + | *.N.N.] C.-XwX#XN.N.] _ v h f S ! ] N.N.] ! B / ` ] N.N.N.N.N.] ",
"N.N.N./ ] N.N.N.~ _ ` ] N.N._ ' _ I ` N.N.N.N.N.N.N.N.N.Z.-X8XMX].u.8 & +  .n.m.N.n.C.+X-XJ.N.N.D./ m j K B / N.N.N.N.] ] N.] N.N.N.N.N.N.D.",
"N.N.] / ] N.N.N.] N.] N.N._ v I j v ` N.N.N.D.N.N.] ' ` [ OXBXMX].u.7.& > +.m.] _ ` ) I ' N.N.N.] / ~ Q ] ] ] ] D.D.D.N.N.N.n.] ] N.D.N.N.N.",
"N.D.N.N.N.] N.N.N.N.D.N.N./ J f l K ! N.N.N.N.N.N._ v L b R.BXNX[.x.4.% + @.m._ c H j c ` n.D.N.D.] D.] ] ] ] D.] ] N.N.N.N.N.N.N.N.N.N.N.N.",
"N.N.N.N.N.N.N.N.D.N.N.N.N./ N J ! / / N.N.N.N.N.D._ z h b >XBXNXXXx.7.% + X.*.! I d x K ` ] N.N.N.D.] ] ] ] ] ) ) ] N.N.N.N.] N.D.N.D.D.N.N.",
"N.N.D.N.N.N.D.N.N.N.N.N.N.] ` / n.N.N.N.N.N.N.N./ ~ m G [ ,XBXNXXXc.7.% + } *.] B L ! ~ / N.N.N./ / D.] ) G P j L ' N.N./ C.L.C.] D.] ] D.N.",
"N.N.N.N.N.N.] D.] ] ] ] ] ) _ ] N.N.D.N.N.D.] D.D./ / ^ C.;XBXNXXXx.7.% + | b.N.` ` N.N.N.N.N.N.N.] ] N._ j h f R ` D.] n.P.<X=XD.] D.n.] ] ",
"N.N.N.N.] ] D.] ] ] P P J k ) N.N.N.N.N.N.N.B.S.B.A.A.B.S.*XBXNX[.x.7.& O | %.S.M.A.B.A.A.n.N.N.N.N.] n.! J J B ! ] ] D.b.I.<X-X/ ] D.] D.] ",
"D.N.] ] ] ) ' ] ] ] L a j x Q ] D.N.N.N.N.S.<.j.j.j.1.,.2./.NXMX[.a.7.& O = o./.3.j.j.3.Y.U.N.] N.D.N.] / ! ` ` ] D.D.#X#XL.G.G.D.L.I.G.] ] ",
"N.] ) T ( j ( N.L.G.B j K B / ] n.n.@XI.N.U.j.z.z.z.l.p.w.`.MXMX[.c.7.% X $ 3 q.p.z.z.z.h.U.N.n.N.] N.N.n.' ] ] D.] C.;XwX+X' ] ] $XwX#X] ] ",
"N.N.K s k f ! L.:X<XG.) ] D.Z.] N.I.wX,XP.S.j.v.z.a.a.i.i.`.9XMX[.c.7.& X # & 0 i.a.g.g.3.S.B.D.N.N._ ` _ H ) ] N./ N.+X$XG.N.] ' OX-X{ L ' ",
"N./ B j I N ! J.,X-XG.] ] I.:X@XN.H.$X@XC.B.S.<.f.p.i.i.i.`.9XMX[.c.w & X # & 9 7.i.s.1.U.A.N.N.N.' I z D f _ N.N.D.D.] ] ] D.] T f b g ( ] ",
"N.n./ Q ! / ] N.G.] P.+X] #XqX$XC.' ' N.] N.N.E -.0.i.i.i.`.oX9X].a.w & @ # & 9 q t.,.A.B.N.N.N.N.] N f A J ! ] N.D.n.N.] D.] ] R j D J ! ] ",
"N.N.D./ N.N.N.N.] Z.<XqXI.] P._ ] P I _ N.A.U.2.$.p.p.i.i.^.XXXX).u.q & X # & 9 8.p.d.3.U.A.N.N.N./ V Y _ ~ ] N.N.N.] N.N.N.N.] ~ N _ ` ] ] ",
"] ] N.N.N.N.N.N.N.N.#X=XL.D._ l A f L ` n.U.j.(.(.c.c.p.i.a.)._.u.u.8 % X @ & 9 i.c.z.l.h.U.N.] N.] ] / n.N.] N.D.] D.] N.] N.N.N./ n.] N.N.",
"N.] ] N.N.N.N.D.N.N.N.C.] ] ' D f A B ~ D.U.Y.v.z.z.a.i.i.a.).].x.5.8 % X @ & 0 i.(.z.l.3.=.N.] ] N.N.N.D.N.N.] ] ] ' ] ] ` ] N.N.N.N.N.N.N.",
"N.] ] D.D.N.D.N.N.N.N./ ] D.P.[ Y ^ ] N.n.B.U.3.s.p.p.t.i.`.XX[.).u.q % @ @ & 9 7.p.f.-.W E N.n.N.N.N.N.N.N.] ) ` T D _ N./ ] N.N.N.N.N.D.N.",
"N.D.] ] ] N.] ] ` N.] ] ] P.qX0XJ.N.] N.N.N.B.A.,.t.t.t.i.`.XX9X].a.w & X @ # 9 w r.@.C D E / N.N.N.N.N.N.N.' v v j c ` n.N.N.N.D.N.N.N.N.N.",
"D.] N.] ' _ ^ H ) ] N.N.] Z.-X#XC.] ] D.n.A.U.1.s.y.t.t.i.(.XXXX_.u.4.% X X % 9 w p.$.>.=.V.] N.] N.' ` ] N./ K d A N ~ N.N.N.N.N.N.N.N.N.N.",
"N.N.D.] P c A j R ] N.] ] ] ' ' ] ( ) ] D.S.3.v.l.u.u.t.i.a.)._.x.u.8 % X # % 7 i.c.l.v.j.U.N.] ) ] T H ' ] ` ! N / ` / N.N.N.N.N.D.N.N.N.N.",
"] ] D.N.B j v S ! ] N.N.D.] ) D K j L ' N.U.j.l.l.k.k.0.0.p.(.x.u.5.8 $ X # 2 5 r.z.z.v.h.U.N._ l H d J ' n.] / N.N.N.N.N.N.N.N.N.N.N.D.N.N.",
"/ N./ / ! m Q ! / N.N.N.D.] ! k j s T / D.S.U.1.1.1.1.1.,.s.r.u.5.5.7 # o =  .>.1.U.3.1.<.A.N.! S f D T / N.N.D.N.N.N.N.N.N.N.N.N.N.N.N.N.D.",
"] N.N.N.] / / N.] N.N.N.N.n.! K K B / ] N.N.B.B.B.B.B.B.B.>.9.4.4.4.7 # o | &.B.B.B.B.B.B.N.N.n.B T ~ / / N.N.D.N.N.N.N.N.N.N.N.N.N.N.N.N.N.",
"N.D.N.N.N.N.N.N.N.N.N.N.N.N./ / ` ] ] N.N.N.N.N.N.N.n.D.N.>.9.4.4.8 ; # o } *.N.N.N.N.N.N.N.N.N./ ] N.N.] N.N.] N.N.N.N.N.N.N.N.N.N.N.D.N.N."
};
