/* XPM */
static char *enemy1742303295[] = {
/* columns rows colors chars-per-pixel */
"70 70 215 2 ",
"   c #1D1D1C",
".  c #1D281D",
"X  c #21251C",
"o  c #242A1C",
"O  c #24351E",
"+  c #29321D",
"@  c #2C3B1D",
"#  c #232322",
"$  c #292925",
"%  c #292928",
"&  c #2A3523",
"*  c #323A25",
"=  c #33312E",
"-  c #353430",
";  c #383733",
":  c #3A3A33",
">  c #3E373D",
",  c #3F3A3D",
"<  c #2F481E",
"1  c #32421D",
"2  c #384C1E",
"3  c #3C551E",
"4  c #2B4C2E",
"5  c #394824",
"6  c #31702B",
"7  c #405C1E",
"8  c #496E1E",
"9  c #4B721E",
"0  c #50771F",
"q  c #51791F",
"w  c #46453F",
"e  c #4B513B",
"r  c #487421",
"t  c #557A29",
"y  c #546E31",
"u  c #667A3A",
"i  c #3C3B44",
"p  c #3D3F4B",
"a  c #433C42",
"s  c #3F414C",
"d  c #464145",
"f  c #494245",
"g  c #41424E",
"h  c #49464B",
"j  c #4C494C",
"k  c #534C4F",
"l  c #5B5C4E",
"z  c #4D4C52",
"x  c #494A55",
"c  c #564F52",
"v  c #575652",
"b  c #55545B",
"n  c #58555C",
"m  c #5A595F",
"M  c #615D4E",
"N  c #635D55",
"B  c #646C4F",
"V  c #67645B",
"C  c #6B6859",
"Z  c #585761",
"A  c #5D5B63",
"S  c #615E66",
"D  c #656267",
"F  c #6A6463",
"G  c #67656D",
"H  c #6B686F",
"J  c #776F66",
"K  c #736A6B",
"L  c #737164",
"P  c #7F7C6F",
"I  c #736E71",
"U  c #757074",
"Y  c #7A7478",
"T  c #7E797A",
"R  c #AC2027",
"E  c #AE2A2E",
"W  c #AE363A",
"Q  c #AF5152",
"!  c #B65852",
"~  c #847A6C",
"^  c #827972",
"/  c #847C7C",
"(  c #1C8529",
")  c #1B9B2C",
"_  c #2B8E2A",
"`  c #26962C",
"'  c #249D2C",
"]  c #1BA22B",
"[  c #24A22B",
"{  c #2CA62B",
"}  c #35A829",
"|  c #3DAA2A",
" . c #3EB128",
".. c #58871E",
"X. c #5AAA1F",
"o. c #68A71E",
"O. c #65B91F",
"+. c #6CBD1E",
"@. c #71B81F",
"#. c #5C8526",
"$. c #5B8920",
"%. c #459625",
"&. c #589822",
"*. c #5F8630",
"=. c #60842F",
"-. c #619421",
";. c #629820",
":. c #638733",
">. c #48AD27",
",. c #43AB29",
"<. c #58AC24",
"1. c #4BB228",
"2. c #53B425",
"3. c #5BB522",
"4. c #5DBA25",
"5. c #55B828",
"6. c #47AC37",
"7. c #65A421",
"8. c #6AA521",
"9. c #6DAB22",
"0. c #71AE2C",
"q. c #62B722",
"w. c #64BC25",
"e. c #6ABC24",
"r. c #71B221",
"t. c #77BB23",
"y. c #75BC22",
"u. c #6EC11E",
"i. c #75C31E",
"p. c #78C61A",
"a. c #79C61E",
"s. c #7BC81F",
"d. c #6CC124",
"f. c #6AC128",
"g. c #73C522",
"h. c #7BC422",
"j. c #77C823",
"k. c #7ECB22",
"l. c #72C333",
"z. c #599356",
"x. c #6D994D",
"c. c #749B47",
"v. c #66B246",
"b. c #80B639",
"n. c #83CD1A",
"m. c #81CD23",
"M. c #84CD2B",
"N. c #83D025",
"B. c #89CD35",
"V. c #8BD033",
"C. c #8ED03A",
"Z. c #92D33A",
"A. c #89B04E",
"S. c #8A8476",
"D. c #8E8F76",
"F. c #908B76",
"G. c #938C7A",
"H. c #BE8877",
"J. c #98D448",
"K. c #9ED455",
"L. c #AED657",
"P. c #A7D758",
"I. c #B2DC60",
"U. c #BEE164",
"Y. c #C4E45E",
"T. c #C7E364",
"R. c #D2E764",
"E. c #8F8685",
"W. c #948983",
"Q. c #948A85",
"!. c #968D88",
"~. c #9B9585",
"^. c #9B938B",
"/. c #9E9690",
"(. c #A29684",
"). c #A29888",
"_. c #A49A8C",
"`. c #AA9D8D",
"'. c #B2938B",
"]. c #AA9E94",
"[. c #A7A38D",
"{. c #ACA18E",
"}. c #BEA28E",
"|. c #ACA293",
" X c #AFA993",
".X c #AFA998",
"XX c #B5A793",
"oX c #BBA694",
"OX c #B5AA94",
"+X c #B9AC96",
"@X c #B3A49A",
"#X c #B5AC9B",
"$X c #BAAD9B",
"%X c #B7B29A",
"&X c #BDB39C",
"*X c #BAB3A2",
"=X c #C29E87",
"-X c #C3A18A",
";X c #C0B79C",
":X c #C2BA9E",
">X c #C1B7A1",
",X c #C5BDA1",
"<X c #C8BFA6",
"1X c #C4BDA9",
"2X c #C7C0A2",
"3X c #C9C2A3",
"4X c #CCC5AA",
"5X c #CEC8AC",
"6X c #D1CBAF",
"7X c #CFC7B1",
"8X c #D2CBB3",
"9X c #D5CFB8",
"0X c #D6D0B6",
"qX c #D7D1B8",
"wX c #DAD4BC",
/* pixels */
"m.m.m.k.i.m.w.4.k.k.m.m.m.N.m.m.k.m.m.N.k.m.k.k.N.k.N.k.N.m.m.m.m.m.m.N.k.N.m.m.m.m.M.m.m.h.5.u.1.{ g.m.m.m.m.m.m.m.m.m.m.m.m.m.m.m.m.k.k.k.",
"m.m.k.d.} 5.' 4.k.m.m.m.m.m.m.m.N.k.k.k.k.k.d.k.k.N.k.k.k.k.N.m.m.m.k.N.m.m.m.m.m.m.m.m.m.h. .] ] 2.a.m.m.m.m.m.M.m.m.M.m.m.m.m.k.m.g.k.k.N.",
"m.m.m.g.{ ' [ w.k.k.m.m.m.m.m.m.k.N.k.5.d.2.{ g.m.m.k.k.k.m.m.m.m.m.m.k.m.m.m.m.m.m.m.-.r 8 3 6 3.+.s.m.m.m.m.m.m.m.m.m.9.9 9 8 r w.{ w.k.m.",
"m.m.n.i.3.3.i.s.k.k.m.m.m.m.m.m.N.k.g. .] ) 1.i.k.k.k.k.k.N.k.N.k.m.m.k.j.m.m.m.m.m.m.3     . 3 k.s.m.m.m.m.m.m.m.m.m.m.-.      o _ [ i.k.m.",
"m.m.m.k.h.k.k.m.m.m.m.m.k.k.m.m.m.m.a.3.[ 3.+.s.k.m.m.n.k.k.k.k.g.f.i.2.5.k.k.k.m.m.m.3     . 7 m.m.k.k.m.m.m.m.m.m.m.m.-.      . %.4.i.s.m.",
"m.m.m.m.k.m.m.N.m.m.m.m.k.h.m.m.m.m.m.a.u.k.k.m.m.m.m.N.N.M.V.m.d.{ | ` w.h.m.m.m.m.m.3       3 m.m.h.h.k.k.m.t.w.h.m.m.-.      + 9.k.k.m.k.",
"m.m.m.m.m.m.m.m.m.m.m.m.k.k.m.m.m.m.C.C.m.m.m.m.m.m.m.m.m.J.U.C.g.| { <.i.s.h.9.8.8.7.y d w d y 8.o.8.8.7.%.&.%._ ;.o.8.*.w w w e ;.8.o.8.t.",
"m.m.m.m.k.k.k.m.N.m.m.m.m.m.m.k.m.C.Y.U.B.m.m.m.m.m.N.s.M.P.T.J.s.u.d.k.s.k.r.* X X X ~.8X8X8XG.X X X X . .   . X o X X l 7X8X8X&X: X X X -.",
"m.k.g.k.w.4.k.m.m.k.k.k.k.j.k.k.k.V.P.K.M.n.m.m.k.k.k.m.k.B.V.n.s.k.m.m.m.m.r.+       ~.wXwXwXG.                        v wXwXwX1X;       ..",
"k.f.{ 2.' 4.k.m.m.m.g.d.g.| w.k.m.N.B.M.k.k.f.k.w.1.j.m.k.m.k.m.m.m.m.m.k.k.r.+     X ~.wXwXwX~.                        M wXwXwX1X:       ..",
"m.g.{ [ { +.s.m.m.k.4.[ } ' f.m.N.s.k.s.k.g.{ ,.' 1.g.n.N.s.k.k.m.m.m.m.h.k.r.+       ^.qXwXqX~.# $ # $ % % % % $ # $ # N wXwXwX1X-       ..",
"n.i.3.q.i.h.s.m.m.k.e.[ >.3.h.m.k.N.N.B.N.h.2.' ,.w.s.m.m.m.k.m.m.m.m.m.k.k.r.+     . G.4X4X4X$XW.W.W.!.@X$X$X@X).W.G.W.`.4X4X<X$X-       ..",
"m.k.h.k.m.m.m.m.N.s.s.w.h.h.k.m.k.m.Z.U.K.m.@.q.a.h.C.J.B.k.m.k.m.m.m.m.m.m.9.+       G.3X3X3X;X@X@X@X$XwXwXwXwX>X@X@X@X$X3X3X3XOX* .     ..",
"m.m.m.k.m.m.m.m.m.m.k.k.k.k.m.m.N.k.J.T.P.M.k.s.m.V.U.R.J.m.m.m.m.m.N.m.m.m.@.+       F.3X3X3X>X@X@X@X@XwXwXwXwX>X@X@X@X$X3X3X3XOX:       $.",
"m.m.m.m.m.m.m.m.m.m.N.N.k.k.k.k.f.k.k.J.M.k.m.m.m.m.J.K.B.k.m.m.m.m.m.m.m.m.r.+       F.3X<X3X>X@X@X@X$X1XwXwXwX>X@X@X@X$X<X3X3X+X=       $.",
"m.k.m.m.m.m.m.N.m.m.k.k.k.4.w.2.[ d.k.m.k.m.m.m.m.m.m.m.m.m.k.k.m.m.m.m.k.j.r.+       S.&X>X&X&X>X$X>X>X1X1X1X1X>X>X*X;X;X$X>X;X`.=       $.",
"m.m.j.s.k.m.m.m.m.m.m.k.k.1.) ] } i.n.k.N.m.m.m.m.m.m.k.g.k.e.2.g.m.m.m.j.1.%.o       ^ @X@X@X&X<X3X3X<X@X@X@X@X>X3X3X3X:X@X@X@X/.=       #.",
"g.g.| O.k.m.k.k.m.g.g.k.s.q.' 3.u.i.m.s.m.m.m.m.m.m.m.g.{ 1.' 1.a.m.m.m.j.4.( .       ^ @X@X@X$X<X<X3X:X#X@X@X@X>X3X3X3X>X@X@X@X(.=       ..",
"] | ` +.m.N.g.4.g.} 1.k.k.a.u.k.k.N.k.N.m.m.m.N.m.m.m.i.1.' ,.q.a.m.m.m.s.+.%.+       ^ @X@XXX&X3X3X3X<XoX@X@X@X>X3X3X3X>X@X@X@X).=       $.",
") | 2.p.J.J.f.[ } ` w.h.m.m.k.k.k.k.N.k.k.k.k.m.m.m.m.s.+.3.p.a.s.m.t.o.7.o.&.e w w d W.$X#X+XoX=X=X=X=X@X@X@X@X}.=X=X=X'.$X$X$X_.=       ..",
"3.h.k.C.T.T.l.,.| 3.+.k.m.s.m.k.m.m.m.m.k.h.m.m.m.m.m.m.k.k.m.m.m.m...o . X : *X8X8X8X4X2X2X2XH.E E E W '.@X@X@X! E E E ! 3X3X3XOX*       $.",
"s.s.m.M.J.J.m.+.g.s.s.n.V.Z.n.k.m.m.m.m.k.k.m.m.m.m.m.m.m.s.m.m.m.m...      : 1XqXwXwX5X3X3X3XH.R R R W '.@X@X@XQ R R R ! 3X3X3X+X-       $.",
"m.m.N.n.k.k.m.m.m.m.h.M.L.Y.J.h.m.m.m.m.k.m.k.m.m.m.m.m.n.h.m.m.m.m.$.      : 1XwXwXwX5X3X3X3XH.R R R W '.@X@X@XQ R R R ! 3X3X3XOX*       $.",
"n.m.n.V.J.L.B.k.m.h.h.M.K.L.B.h.t.t.t.w.y.h.h.h.h.t.h.h.t.h.t.h.h.h.#.$ % % w 2XwXqXwX4X2X2X2XH.E E E W '.@X@X@XQ E E E ! :X3X<X+X-       $.",
"N.Z.n.V.U.U.B.M.M.m.k.k.r.5 5 1 1 * < O 1 1 1 * < @ 1 @ @ @ 1 1 @ 1 B $X%X#X%X4X5X4X4X;X+X+X+X}.-X-X-X-X@X@X@X@X}.-X-X-X-X+X+X+X`.=       ..",
"P.R.P.n.C.C.n.B.L.C.m.m.9.o                                         V wXwXwXqX3X3X3X3X+XXXXXXX;X3X3X3X,XoX@X@X@X;X3X3X3X:XXXXXXX(.=       ..",
"J.I.C.k.w.g.M.P.R.K.M.k.9.+                                         V wXwXwXqX4X3X3X3X+XXXXXXX+X3X3X3X,X@X@X@X@X>X3X3X3X:XXXXXXX(.=       $.",
"j.f.1.5.' w.k.B.K.m.N.V.9.o                                   .     V wXwXwXqX3X3X3X3X&XXXXXXX&X3X3X3X1X$X@X@X@X>X3X3X3X:XXXXXXX(.=       $.",
"k.f.) { ) u.s.m.8.r t u u J T P P P P P P P P P P P P P P P P P P P ~.6X8X6X5X3X3X3X3X+XXXXXXX&X8X8X6X1XP K K J XX6X6X8X<XXXXXXX(.=       $.",
"k.g.>.3.+.a.k.m.t       , 4XwXwXwX9XwXwXwXwXwXwXwXwXwXwXwXwXwXwXwXwX0X3X3X3X3X3X3X3X3X+XXXXXXX,XwXwXwX1Xk > > > ].wXwXwX4XXXXXXX(.=       ..",
"k.k.i.k.m.m.m.m.q       5 1XwXwXwXwXwXwXwXwXwXwXwXwXwXwXwXwXwXwXwXwX0X3X3X3X3X3X3X3X3X&XXXXXXX>XwXwXwX1Xk > > > _.wXwXwX4XXXXXXX(.=       $.",
"m.m.m.k.m.m.m.m...      a 7XwXwXwXwXwXwXwXwXwXwXwXwXwXwXwXwXwXwXwXwX8X3X3X3X3X3X3X3X3X+XXXXXXX>XwXwXwX1Xz > > > [.wXwXwX7XXXXXXX(.=       ..",
"m.m.m.m.r.8.8.7.t w w d l 2X8X8X8X0X0XqX0XqX0X0X0XqX0XqX0X0X0X0X0X0X6X3X3X3X3X:X:X:X:X;X+X+X+X:X8X8X8X>XN c c c ].8X8X8X&XG.G.G.S.5 1 @ 1 ;.",
"m.m.m.k.2 X X . L 8X8X8X7X+XXXOXXX,X3X3X3X3X3X3X3X3X3X3X3X3X3X3X3X3X3X3X3X3X2X+X+XXX+X;X3X:X3X;XoXXX$XXX|.].@X].oXoXXXoX~ # # # & %.,.' e.m.",
"m.m.N.h.1       L wXwXwX9X#XXXXXXX,X3X3X3X3X3X3X3X3X3X3X3X3X3X3X3X3X3X3X3X3X2XOXXXXXXX:X3X3X3X;XXXXXXXXX@X@X@X@X@XXXXXXX~       o ( {  .+.h.",
"m.m.k.h.1       L wXwXwX8XOXXXOXXX:X3X3X3X3X3X3X3X3X3X3X3X3X3X3X3X3X3X3X3X3X2XOXXXXXXX;X3X3X3X:XXXXXXXXX@X@X@X@XXXXXXXXX~       o %.+.i.n.m.",
"h.h.e.7.2 % % % J 9X9X9X7X%X XOXXX:X3X3X2X2X2X,X2X,X2X,X1X,X,X,X,X,X2X,X:X,X:XXXXXXXXX;X:X3X3X;XXXXX+XXX@X@X@X@XoX+X+X+X~       + o.m.m.k.m.",
"2 @ < & W.#X%X%X.X/././.[.*X*X3X,X3X3X3X2X#X^.^.^.^.^.^.^.^.^.^.^.^.^.^.~.^.^.!.!.!.E.|.+X+X+X;X,X,X,X:XXXXXXXXX;X:X:X:XS.      + r.m.m.m.m.",
".     # .XwXwXwX*XE.E.E.^.,X3X3X3X3X3X3X3XOXE.E.E.E.E.E.E.E.E.E.E.E.E.E.E.E.E.E.E.E.E.`.+XXXXX+X3X3X3X,XOXXXXXXX:X3X3X3XF.      + r.m.m.m.m.",
"o     # .XwXwXwX*XE.E.E.~.2X3X3X3X3X3X3X3X.XE.E.E.E.E.E.E.E.E.E.E.E.E.E.E.E.E.E.E.E.E.`.XXXXXX$X3X3X3X,XOXXXXXXX;X3X:X<XF.      + t.m.m.m.m.",
"o     #  XwXwXwX*XE.E.E.^.,X3X3X3X3X3X3X3X XE.E.E.E.E.E.E.E.E.E.E.E.E.E.E.E.E.E.E.E.E.].@XXXXX$X3X3X3X2XOXXXXXXX:X<X3X3XF.      + r.m.m.m.m.",
"o     # [.8X8X5X.XY U Y / :X3X3X2XOX|.|.|.^.Y Y Y Y Y Y Y Y Y Y Y Y Y Y Y Y Y Y Y Y Y Q._./.(.].&X&X&X&X;X;X&X;X;X;X+X;XS.      + r.m.M.m.m.",
"o     # ).3X3X3X~.G G G T :X3X3X2X/.E.E.E.T G G G G G G G G G G G G G G G G G G G G G / E.E.E.^.XXXXXXXX:X3X3X3X+XXXXX+X~       + r.m.m.m.m.",
"o     # ).3X3X3X/.G G G Y *X3X3X2X^.E.E.E.T G G G G G G G G G G G G G G G G G G G G G T E.E.E.^.XXXXXX+X3X3X3X3X+XXXXXXX~       + r.m.k.m.m.",
"o     # G.3X3X3X/.G G G T &X3X3X3X^.E.E.E.T G G G G G G G G G G G G G G G G G G G G H / E.E.E.^.XXXXXX+X,X3X3X3X+XXXXXXX~       + r.m.k.m.m.",
"2 1 @ 5 D.[.[.G.D.T T T S.%X*X&X&XE.T T Y U G G G G m b b n b b n n b Z n b n Z A A A T E.E.E.!.).).).`.:X,X:X:XXX_._.).J       + r.m.m.m.m.",
"n.h.a.t.2 $ + + C ,X,X,X*X!.E.E.E.b s s g x G G G Z #   # X X       #   #   # p g s s U E.E.E./ H H H U {.XXOXXX/ H H H k       + t.m.m.m.m.",
"m.M.m.h.1       C 3X3X3X&X!.E.E.E.b s s s b G G H A #           .           # p s p s I E.E.E./ G G G I {.XXXXXX/ D G D k       & r.m.m.m.m.",
"m.m.n.t.1       C 3X3X3X&X!.E.E.E.b p p p b G G G Z #                       # i p p a U E.E.E./ G G G U `.+XXXXX/ G G G z       + r.m.n.m.m.",
"m.m.m.h.1       C 3X3X3X&XE.E.E./ b p p p x S S G b $ # . . X X o o o # $ o # i p p p I E.E.E.T D D D H ).`.`.{.^ G G G z       + r.m.M.m.m.",
"m.m.m.m.1 .     C 3X3X3XOXb x x b Z A A S x % % % 5 _ ( ( &.o.9.8.9.8.9.0.9.-.& # # # F E.E.E.I x g x x b b b b S G G G z       + r.m.m.m.m.",
"m.m.m.h.1       C 3X3X3X Xx p s s A H G G x       + X.1.u.a.h.m.m.m.m.m.m.m.r.+       G E.E.E.K p p p p p s p p Z G G G z       + @.M.m.m.m.",
"M.n.k.k.1       C 3X3X3X Xx s s s A G G G h       @ @.a.m.m.m.m.M.m.m.m.m.n.r.+       D E.E.E.I p p s p p p p p Z G G G z       + r.m.m.m.m.",
"m.m.M.h.1       C 3X3X3X Xx s s p A G G G h       @ @.m.m.m.m.m.m.k.k.m.m.m.9.&       G E.E.E.I p p p p p p p p Z G G G z X     + t.m.m.k.k.",
"m.m.k.h.2       C 3X3X3X Xx , i a A G G G h       @ t.m.m.m.h.g.h.w.w.k.N.m.b.+       F E.E.E.K i i i i i i i i m G G G z       O 0.C.B.m.k.",
"m.m.e.q.1       C 3X3X2X Xd > ; > Z G G G d       @ t.m.m.m.e.} 5.' 4.k.n.M.A.=       F E.E.E.K > > > > > > > > n G G G z       @ A.R.J.k.N.",
"m.k.3.) O       C 3X3X3XXXf > > i n G G G h       @ y.k.k.m.+.] [ { u.s.m.k.0.&       F E.E.E.F > > > > > > > > n G G G z       + v.I.v.5.k.",
"m.h.+.' @       C 3X3X3X Xf > > a N G G G h       @ <.g.k.k.a.3.q.i.s.s.m.k.<..       F E.E.E.K > > > > > > > > n G G G z       + ` 6.` e.k.",
"m.m.a.+.1       B :X:X,X{.f > > > A G G G h       + ` d.k.m.k.k.k.m.m.m.k.k.o..       F E.E.E.K > > > > > > > > n G G G z       o ( ,.<.y.k.",
"m.n.k.k.1       M oXXXXX~.f > > > A G G G h       O _ +.s.m.m.m.k.m.m.k.k.k.o.o       F E.E.E.K > > > > > > > > n G G G z       o X.y.h.k.k.",
"m.k.k.k.2       M XXXXXX(.f , , > A G G G h       O q.a.n.m.m.m.m.m.m.s.k.k.r.O       F E.E.E.K > > > > > > > > n G G G z       + r.n.m.m.m.",
"m.k.k.h.1       M XXXX+XG.f > > > A G G G h       @ t.m.m.m.m.m.m.m.N.m.k.k.r.+       F E.E.E.K > > > > > > > > n G G G z       + @.m.m.m.m.",
"m.m.m.h.2 o o o M `.'.{.Q.a a a a Z G G D h # X X * 9.h.h.t.k.m.m.m.m.m.m.m.r.@ . . # D / / / K a a a a > > > > n D G G z # X # & 9.t.m.m.m.",
"m.k.m.m.r.8.8.8.t : : : f U ^ ^ Y c a a a z n b m k 5 @ 1 @ o.m.m.m.m.m.m.M.h.r.o.} 6 4 = ; = j ^ Y ^ K a > > a a a a a h n n m c 5 @ @ @ -.",
"m.m.m.k.j.j.j.2.r       = / E.E.E.k > > > k G G G Z #       ;.m.m.m.j.g.k.N.m.m.s.O.[ <       d E.E.E./ d > > > > > > > j G G G A %       ..",
"m.m.m.k.w.{ 1.' 9       = / E.Q.E.z > > > z G G G m X       ;.g.w.i.| 4.k.k.m.m.k.s.u.3       d E.E.Q./ h > > > > > > > j G G G A %       ..",
"k.k.k.k.+.' | ,.9       = E.E.!.E.n > > a z G G G n #       ;.e.' | ' e.k.m.N.m.N.s.k.3       d E.E.E./ a > > > > > > , h H H G A #       ..",
"k.m.m.k.p.3.d.i.o.0 q q #.c.c.z.z.6 t t :.:.c.c.c.c.t 0 0 0 @.g.} | 3.i.s.k.m.m.m.N.k.-.q q q *.x.z.x.x.:.=.=.=.=.=.=.=.:.c.c.c.c.t t 0 q 9.",
"m.m.m.m.s.s.n.m.m.m.m.m.m.s.i.3.5.y.a.k.m.m.m.m.m.m.m.m.m.m.m.h.+.g.h.s.m.m.m.N.m.m.m.m.m.m.k.k.+.q.s.h.m.m.m.m.M.m.m.m.m.m.m.m.m.m.m.m.m.m.",
"m.m.m.m.m.m.m.m.m.m.m.m.m.k.k.k.h.m.m.m.m.m.m.m.m.m.m.m.m.m.m.m.m.m.k.m.m.m.m.m.m.m.N.m.m.m.n.m.s.k.m.m.m.m.m.m.m.m.m.m.m.m.m.m.m.m.N.m.m.m."
};
