/* XPM */
static char *exit1742303295[] = {
/* columns rows colors chars-per-pixel */
"70 70 221 2 ",
"   c #030404",
".  c #070808",
"X  c #0A0B0C",
"o  c #11160E",
"O  c #0E0F10",
"+  c #0F1012",
"@  c #121315",
"#  c #181C16",
"$  c #161719",
"%  c #17181B",
"&  c #191A1D",
"*  c #1C2515",
"=  c #202A16",
"-  c #232D1B",
";  c #28321F",
":  c #1D1E21",
">  c #291F22",
",  c #1F2024",
"<  c #212226",
"1  c #272724",
"2  c #24262A",
"3  c #27282C",
"4  c #292A2E",
"5  c #3A2A2E",
"6  c #2A3522",
"7  c #2C3725",
"8  c #323D2B",
"9  c #2B2D32",
"0  c #2F3135",
"q  c #303237",
"w  c #3A3537",
"e  c #33353A",
"r  c #36393E",
"t  c #393A3E",
"y  c #4D181A",
"u  c #532A2E",
"i  c #473A3B",
"p  c #673035",
"a  c #34402E",
"s  c #3A5F2D",
"d  c #394435",
"f  c #44661D",
"g  c #425B27",
"h  c #434A3D",
"j  c #51732C",
"k  c #4D6733",
"l  c #597839",
"z  c #373A40",
"x  c #3A3D43",
"c  c #4E3E43",
"v  c #703E42",
"b  c #3E4047",
"n  c #3F4248",
"m  c #474446",
"M  c #42454C",
"N  c #45484F",
"B  c #524A4C",
"V  c #4A5548",
"C  c #464951",
"Z  c #4A4D55",
"A  c #4C4F58",
"S  c #4E5255",
"D  c #4E515A",
"F  c #535150",
"G  c #575759",
"H  c #52555D",
"J  c #694B51",
"K  c #5A7443",
"L  c #5A6659",
"P  c #607A48",
"I  c #667B54",
"U  c #545760",
"Y  c #565962",
"T  c #595D65",
"R  c #5B5F69",
"E  c #725B63",
"W  c #5F6367",
"Q  c #5E616B",
"!  c #646564",
"~  c #61656E",
"^  c #646A6C",
"/  c #69746B",
"(  c #636671",
")  c #656974",
"_  c #696C75",
"`  c #6A6E79",
"'  c #756D70",
"]  c #6D717C",
"[  c #71747D",
"{  c #78767A",
"}  c #A11B1C",
"|  c #8D363A",
" . c #AE2A2C",
".. c #CB1A1A",
"X. c #CA2829",
"o. c #AC3D43",
"O. c #8C4A50",
"+. c #A95056",
"@. c #995C64",
"#. c #976A74",
"$. c #86737C",
"%. c #98737B",
"&. c #A76971",
"*. c #CB4547",
"=. c #1C9C2C",
"-. c #249B2D",
";. c #379C30",
":. c #18A22C",
">. c #24A12B",
",. c #2CA52B",
"<. c #37A92A",
"1. c #3EB128",
"2. c #5B9F1F",
"3. c #6BB31E",
"4. c #64BB1F",
"5. c #6CBE1E",
"6. c #598C2E",
"7. c #639726",
"8. c #669A2B",
"9. c #6A9C34",
"0. c #709D3E",
"q. c #46AD28",
"w. c #58AA24",
"e. c #4DB127",
"r. c #5BB522",
"t. c #59B726",
"y. c #6CAA25",
"u. c #6EA52E",
"i. c #6CB222",
"p. c #64BC25",
"a. c #68B922",
"s. c #73B523",
"d. c #76BB24",
"f. c #78BC26",
"g. c #76B62B",
"h. c #7BBE2A",
"j. c #73A836",
"k. c #7DBB34",
"l. c #6EC11F",
"z. c #79C416",
"x. c #76C31F",
"c. c #79C61E",
"v. c #7BC81F",
"b. c #6BC224",
"n. c #73C522",
"m. c #7CC424",
"M. c #77C822",
"N. c #7ECA22",
"B. c #7EC22D",
"V. c #648546",
"C. c #6F914F",
"Z. c #789B59",
"A. c #7AAA45",
"S. c #779165",
"D. c #768378",
"F. c #81BF33",
"G. c #81CD23",
"H. c #82C92C",
"J. c #82C532",
"K. c #88C938",
"L. c #8DD235",
"P. c #81AB53",
"I. c #8DAD67",
"U. c #9AD24D",
"Y. c #ABD65B",
"T. c #B0D566",
"R. c #C4E45E",
"E. c #D0E464",
"W. c #6F7480",
"Q. c #727681",
"!. c #757984",
"~. c #7A7D86",
"^. c #767C88",
"/. c #7A7E89",
"(. c #8F7B84",
"). c #AC7C85",
"_. c #798583",
"`. c #7D828C",
"'. c #7F8490",
"]. c #838B86",
"[. c #81858E",
"{. c #88948A",
"}. c #828691",
"|. c #898490",
" X c #868A94",
".X c #898D96",
"XX c #8A8E99",
"oX c #9A8A95",
"OX c #8E9594",
"+X c #8E919B",
"@X c #929C96",
"#X c #91959E",
"$X c #A0929B",
"%X c #97A287",
"&X c #9AA59A",
"*X c #9296A0",
"=X c #9599A2",
"-X c #9A9DA6",
";X c #9C9FA8",
":X c #B29CA5",
">X c #99A0A2",
",X c #9EA1AA",
"<X c #A1A5AD",
"1X c #A6AAAC",
"2X c #A4A7B0",
"3X c #A6A9B1",
"4X c #AAADB4",
"5X c #AEB0B7",
"6X c #AFB2B9",
"7X c #B2B5BB",
"8X c #B6B8BE",
"9X c #B7B9C0",
"0X c #BABDC3",
"qX c #BFC1C7",
"wX c #C2C4CA",
"eX c #C6C8CD",
"rX c #CCCDD2",
"tX c #CED0D4",
"yX c #D4D5D9",
"uX c #DEE0E2",
"iX c #E6E7EA",
/* pixels */
"G.G.G.N.n.N.p.p.M.G.G.G.G.G.G.G.G.G.G.G.N.G.N.G.G.G.G.G.N.N.G.G.G.G.N.N.G.N.G.G.G.G.G.G.G.M.t.n.q.,.M.G.G.G.G.G.G.G.G.G.G.G.G.G.G.G.G.N.N.G.",
"G.G.N.b.<.t.-.t.N.G.G.G.G.G.G.G.G.G.G.N.N.M.b.M.G.N.N.m.h.B.B.J.J.J.K.J.H.J.J.B.B.m.B.G.G.M.<.,.-.e.c.G.G.G.G.G.G.G.G.G.G.G.G.G.N.M.M.M.G.G.",
"G.G.G.n.,.>.>.4.v.G.G.G.G.G.G.G.G.G.M.t.b.e.<.n.N.G.N.V./ D.D.D.{.&X&X&X%X_.D.D.D.L j.G.G.M.r.>.r.5.v.G.G.G.G.G.G.G.G.G.G.G.G.n.b.b.<.p.N.G.",
"G.G.G.x.r.r.x.c.N.N.G.G.G.G.G.G.G.N.M.1.:.>.e.n.G.N.M.K _ `.'.`. X=X,X,X*X'.`.`.^.Y 9.G.G.N.x.l.v.G.v.G.G.G.G.G.G.G.G.G.G.G.m.p.=.<.-.d.N.G.",
"G.G.G.v.v.N.G.G.G.G.G.N.G.G.G.G.G.G.m.r.>.r.l.v.N.G.G.K ] 4XqX=X'.2X9X9X*X'.4X=X'.Y 9.G.G.G.N.N.G.G.N.N.G.G.G.G.N.G.G.G.G.G.N.b.-.e.r.z.N.G.",
"G.G.G.G.G.G.G.G.G.G.G.G.N.M.G.G.G.G.N.M.x.M.m.B.H.K.J.k T H N ) ] ,XqX0X'.!.Y Q ] Z 9.B.K.B.B.B.G.G.N.N.G.M.G.M.p.N.G.G.G.G.G.M.4.n.v.G.G.G.",
"G.G.G.G.G.G.G.G.G.G.G.G.G.N.G.G.G.G.L.L.f.J.Z.].@X@X{.V U n 0 C e Q ^.`.n n z Y ) n / {.@XD./ A.h.v.N.v.M.e.p.q.<.M.G.G.G.G.G.G.G.G.G.G.G.G.",
"G.G.G.G.N.N.N.G.G.G.G.G.G.G.G.N.N.L.R.R.P D.XX~ D `.>XD T C e Z 0 C Q Q r n b Q ] C !.=X/ !. X@X! u.G.G.M.e.=.>.e.c.G.G.G.G.G.G.G.G.G.G.G.G.",
"N.N.n.N.t.b.M.G.G.G.H.N.N.n.B.N.N.J.T.Y.I `.=X~ Z `.<XH T Z r Z r Z Y Q z N n T Q.N /.;X( `.*X>X~ A.B.B.m.4.<.4.x.v.G.G.G.G.G.G.G.G.G.G.N.G.",
"G.b.,.t.-.t.N.G.G.G.b.p.a.q.p.B.B.V._.&X>X6XtX+X] XX7X! Q H x H Y Y Q Y Y Y C ( !.N XX3X(.7XyXeX3X&X_.D.A.f.5.f.N.N.G.G.G.G.G.G.G.M.N.M.p.M.",
"N.d.>.>.<.a.v.G.G.m.t.;.k d 6.K { @X5X0X0XtXyX-X[.H D e Y Q Y N n D D H Z n A ) Q.x N M ) 8XtXyXeX0X4X2XOX! 9.k 9.H.h.G.G.G.G.G.n.q.r.,.q.N.",
"v.c.r.p.x.v.N.G.G.m.V._.`.] S / XX5XtXyX0X.XT z q & & : z z e e n A Y Y C x e M Z 9 & $ 3 M S _ -XeXrXeX<X].G Q  X@X/ j.H.G.G.G.n.e.=.=.t.M.",
"G.v.v.N.G.G.G.G.N.P 4XuX2X'.` n OX0X=X.X[ Z 3 @ @ : < & & @ @ o + $ % $ + + @ # $ & : < & $ & q T /.<X7X9X( Z !.wXiXyXI.A.Y.L.v.v.4.q.5.x.m.",
"G.G.G.G.G.G.G.m.h.C.8XiX2X'.W.n [.4X}.` Q b < @ @ : < , < < < : : + + + $ , : : , & , < $ $ & 4 Z ) #X<X2XR D ^.eXiXiX.XI.E.U.G.v.c.x.G.G.G.",
"G.G.G.G.G.G.m.V.L 1X6XqX_.H _.W.N Z x 9 2 $ < : $ : , t ] #X-X-X'.Y n n _ XX+X!.` M 2 < & 1 9 & & 4 M A x U ^.W.2XrX7X0X].P.F.G.G.G.G.G.G.G.",
"G.N.G.G.N.G.V.] `.`.'.;XR z Y '.~ < @ @ & % % : < b )  X-X4X6X9X,X!.] ] '.6X7X<X,X#X~.T q , & $ & @ @ O z ^.W.C (.4X#X[./.! L j.G.G.G.G.G.G.",
"G.G.c.M.G.G.S.H D Y N C T ( H ) H & @ % & & e T ) !.+X*X,XqXtXyX;X'.'.'.`.8XyX6X,X*X*X.XW.W D 0 : & @ X q ( T T H Z M H H ~ ` j.G.G.G.G.G.G.",
"n.M.<.p.N.m.K b z T Q T A N ) H 3 @ % & r ^  X=X;X-X.XQ ) +X-X`.-X#X}. X,X X+X`.W.Q W.+X,X#X+X`.Y 4 @ @ $ e ^ Y H R T ( C C A A.G.G.G.G.G.G.",
":.<.-.l.G.l _.}./.Z Q #XQ M 3 % @ : T [ `.+X#X+X.X^.Y e , D ` ) ,X<X*X+X6X}.) r , 3 n ( `.#X=X*X X~.M 3 $ $ $ e [.;X}.Z ~ +X=X Xk.G.G.G.G.G.",
"=.1.w.z.U.I  X=X+XG W  XT x & + @ 3 _  X.X.X+X X}.` Z 0 : C ) ) ,X<X*X*X7X[.) 0 % , z Y !..X+X.X.X.XS r < @ X 9 { *X/.A [ ,X<X+XP.G.G.G.G.G.",
"r.d.G.L.R.%X-X8XeX7XH 3 % @ O O 9 ( .X+X.X` ~ ) ) M q r e Q ] ) =X<X=X-X4X^._ C r e e 0 H ) ) Q !.XX[./.Z & O + & 1 3 [.qX6X1X=XP.G.G.G.G.G.",
"v.G.G.H.I ].,XwXyX1XC & @ @ + $ Y /.}.}.'.] D 4 : 2 r z n Q ] ] ,X-X.X.X4X X] H N b x 0 , r C Q ^.}..X.X/.r @ @ @ @ & ` 0X6X,X;X/ j.G.G.G.G.",
"G.G.m.f.S.#X5XtXuX X4 @ O X & H `.}.Y N M r x r 9 r b b ] ) T +X9X,X+X#X6X6XQ.[ `.Y n x e b M e x N ` `.}.] 4 O + @ @ N 6XqX6X3X*XP.G.G.G.G.",
"G.G.l V ! -XtX8X<XH & $ X   e ) +X!.x 3 z Y `.!.` z ^ ] Q }.-X#X4X,X+X+X5X,X*X] W Q ^.M H `.OX[ A 9 2 3 !.[.Y & @ $ @ 2 ~.rXuXwX=XL u.G.G.G.",
"G.L.l m T ,XrX3X+XZ % $ X   b _ #X[ b 9 b Q .X!.] n ) !.~  X=X.X2X;XXXXX4X#X+XW.Q ) `.Z Y  X#X`.U r 2 < ~. X( : @ $ @ < [ wXyXwX#XH 9.G.G.G.",
"Y.E.I N Q 4X*X] ) e % @ X . C `.=X!.Q Q ) Q Q C n ) T ] ,X[ T H  X X^.^.*X` Y +X2X+XT ` H D Y Q ( ~ T H }.XXQ.3 O @ @ & Z Q./.7X.XA u.G.G.G.",
"U.T.I T ^.4X'.c 0 % X O 4 z ) +X~ H x 4 r N N 9 < M H Q.~.Q U H +X+X^.^.,X] H ` !.`.( H e t M C n 9 x N C /.}.H , @ X X < H _ -X3X[ A.K.J.H.",
"P.@X-X-X3X,X` M t 0 @   e A ] +XT q x M e Z [.G 0 D W Y Y !.[.] +X+X'.`.>X`.^.) T Y Y Q M { -X` x x 2 $ q ~..XQ &   . : e A U [.3X<X&X&X{.J.",
"C./.XXXX,X#X) S C 0 $ . r D ) Y t , 9 r e e ~  XXX XT M b ) !./.-X`.` ` #X.X~.D x n C Q..X[./.A e r 9 9 9 x ) T :   X & x H T !.#X#X X[.` k.",
"l e q q q q 9 < , + . O e n D N e < 4 e e 9 0 C H Y T H H .X1X<X*X` T T `.-X<X] Y H Y Y Y x q 4 q r 3 < 9 z A Z < + X . $ 3 9 r M x 9 3 < s.",
"j 3 9 q q q q < & + X X e n D n q < 4 q e 9 9 M G D Q Q Q XX<X-X.X_ Y U [ #X,X^.Q T ~ Y D x 9 3 q r 3 < 9 e Z C < O X X $ 3 9 x b t 1 , $ y.",
"f M [ /.~.#X~.C z 0 + . r A A r < : 3 9 0 r Z ) ] _ `.+X^.Q T T Q Q D N S S T _ ` `..X[ ` T U M e 9 9 0 < 3 M Z < X   9 x Y ( XX.X~.U M < y.",
"f Z c q ~ =X^ x z e O   z C n e & & 4 e q D x q e /.;X(.H N B E [ Y n n R Z t M N C `.,XY 0 0 D n e 0 9 : , x C : .   q n M N }. XC M A 9 y.",
"f A n 9 r T A r 0 e @   4 x n 0 & < 4 q x C n H ( *X^.~ ' E E J G M c N D G E $.(.N C #X~.C z M C r 4 2 : : z x % .   e x x M R A q N H 9 y.",
"f Z U Z N ~ r Z Q C +   2 x x 0 & 4 ` .X~ M N Z C A c J #.&.+.$X(.G Z G oX(.@.O.| p w M Z Z Z n Z !.M , $ : z x $     e Q e : H U C T Q r y.",
"f H R T T ` N H ` A :   2 z x 0 & q [ #XQ b Z Z C n i v #.&.+.$X(.J Y R $X).+.| | p i x M D Y n M !.Z 3 : : z x $     e ~ x 3 Q ( T ~ ) n y.",
"C.^.*X>X2X7X=X[ ( A 9 O , e x 0 < Y Q G e 9 _ T C n B O.+.*.*. .| (.*X(.O. .*. .} } i M M ] '.A 4 M Y Y e 2 z z $ X $ x T /. X3X0X1XXX}.` k.",
"C./ !.'.#X+X!.Y A z 2 O : : M z N ` z , 3 < [ H 0 9 B #.+.X.X...@.oX(.' O.} .. . .o.p 5 9 Q.;XC 3 1 n D U z C e +   & 4 M ~ ` `.#X|.` ^ ^ k.",
"m.s e x n x z 2 : O O   : 4 H x r M 0 , : & T x < : c $.&. . .+.).G i i p | } o.+.J u > , Q ^.z & : : : 0 0 D x +   X X @ 9 e t M M 9 2 6.G.",
"G.k Q W.'./.` x 9 @     e A ( x r , : 2 3 & Q Z 9 9 q c @.%.%.:X(.w t c c J O.p p y u 3 < (  Xe : 3 % $ e 9 U Y $       , H ) [ #X[.C q 7.G.",
"G.k ( `.+X*X^.M 0 @ .   z U ) x r : % , 9 & Q Z 0 q 9 i E $.(.:X$.i x c c J J p y y 5 4 , ) '.z 2 2 : % 0 0 U R &       < T ] }.3X*XZ z 8.G.",
"G.k Q !.*X3XXXN 0 @     M ) ) n e : : < x 9 Y D n q 3 Z G D G ! { T Q ( ! ! i 1 > m q : z R W.x z 0 : : 0 e U ) :     X < Q ^.;X0XXXZ e 8.G.",
"G.k ~ ^.*X6X.XM 0 @ .   C ` W.z 3 2 Z ( n & M Y H e : r C { |.' ' ! w 5 i B F q < z 9 : c T Q 4 2 H x 9 9 , U ` 2       < T W.;XwX*XA e 8.G.",
"G.k R Q. X,X`.n 9 $ X . H ^.W.n 9 M z 9 e < M Y Y x 2 2 N D B B i 2 + X @ > h t q < : 9 A U Y 0 9 0 x n 0 0 Y !.4   . X < Y ` #X3X XC e 8.m.",
"N.k Y ` .XXX` z 9 @ X . H ^.!.n r M q 3 : T z M H U e < 1 D ^ N : % # # h i T t < : 2 M U q : R z , 2 2 z 0 Y ^.9 . X X , A T !..XQ.N e 8.G.",
"G.k Y ` }. XQ.N e @ X X D !.` Z M 9 4 q b 0 & % : x A z & 1 q D W J i i h m N t q 9 M D 4 $ % < z z % O e n Y W.9 . O X 2 Y ` /.XX^.N r 8.G.",
"G.k Y W.'. XQ.C e % X X D Q.] Z M 2 3 0 N 9 & @ O e H x : < 3 D ! L c i i m M x z e Z A < @ $ % x z $ . 0 n Y W.9 . O . 2 T ` `.#X^.N r 8.G.",
"G.k Y W. X*XW.x 0 % X . Z W._ M e $ < 9 C e < < 2 < M C Z Z C ( H m i m 4 B A A U C Z e 2 < < < N z : $ 9 e U ` 4 . . . 2 D Q '.<X/.N q 8.G.",
"G.g U ` }.+X] n 9 % . . A Q.( 0 , : @ @ x C Y Q Q n 9 9 H ) ` ` C D T Y x U ` ( ) n 2 e U Q Q C A 2 O . , , C ` 4 . . . , H Q '.3X[.x 2 7.G.",
"G.g D ( `.#XQ.x 9 @ @ : M D D 4 z 9 : $ : : , 3 9 e x n x 3 , n T Z n n Y Y 0 0 z n n z 9 2 2 : : : % % z , x H e , : O : D ( '.5X[.x 2 7.G.",
"G.g A Q `.#X] x 3 @ + $ 2 0 x : 9 n D U R z + X X + z Y Q e , 2 Z C n n D z , Z R Q A , O X O : C Y C N x : 0 e : : $ O : A Q '.7X/.t 2 7.G.",
"G.g Z T /.+X] x 2 O O $ 4 0 z : 2 x D Y R x : X + @ 0 D Q n e 9 C Z n n D z 0 A Q R C , @ + O , H R A n z % 9 z : % O . : A Q '.7X/.r 2 7.G.",
"G.g N H !. X) q : O   O C Q n : : , 4 0 z U n z x z 2 2 9 ` XXY D D C C U n W.Z 0 4 2 0 z e e H Z e 4 2 2 % 4 D 9 $ .   % N Y !.<X!.e 2 7.G.",
"G.g M S ` Q.Y 4 : .   O x U z : 2 z n A R z 3 z x 4 z x , A ) n D D C C R x U z : 9 x 4 e e 9 2 A H n x z : , N 3 $ .   O z C ( #X_ q < 7.G.",
"G.k D H ] Q.H 3 % O . O z Z e : z e : : e , : z A n x 3 3 D Q n n R _ ` H z A x 9 , 0 x C 9 : : 0 3 0 z x 2 , n 2 O .   @ z C ( *X` N x 9.N.",
"m.I  X-X7X0X Xx 2 + . + e N 0 : z , 9 z z e : , 4 e n x 4 n Y n z T ` ) Z z Z z 2 0 n x 9 % X , e z 9 3 n 4 2 x 2 $ O . : U ` -XeX4X` Y 0.N.",
"6.e n A ~ W.Y 3 % O $ 3 H ) x , x 3 O O O O X + @ @ @ : C C b ( ^.] ) ) Q.!.D U R e : @ @ O O O O + X X z 0 3 H x 9 < + $ r M ( +X) z 9 d g.",
"6.t n C T ) H 0 2 : : 9 D ( n 2 N 0 : $ $ $ $ : & & $ : D H C ` `.W.] ] !.`.T R ) z % @ % : % $ % % % $ N 0 4 D x 0 3 : , x C Q }.R z q M u.",
"I.+X=X*X X`. X^.Q.!.C 9 2 3 z e U ) ` ` ` Y Z D Y H A Z Y .X,X!.A !.*X*XT Y .X] T H C D H D Z A ~ ] ` _ ) n z 0 3 2 9 ( !.}..X}.'.+X;X;X.Xk.",
"I.6X=X+XXX.X+X'.`.!.H 3 % % e n n N C A c z x x x n z z C !.+XQ n ] .X.XH N !.~ A M z x x x x z t N N M M n n 3 : : e Q ^..X+X.XXXXX4X9X3XK.",
"I.}. X X*X X` T D Y C 9 9 9 x T ( R Q ( Q Y Y R T T U Y R Y H Q D Y Q Q A T T Y R R D Y T Q T Y T Q Q Q Q Q D e 3 < e A U Q Q Q.XX X'./..XF.",
"Z.^./.}.,X;XW.D M n 0 , 2 9 z n N x H R T D Y R T Z x Z Z e 9 C Q D n n T T z b C A N n H Q Q D H Q Z n M M n e , & 2 x M T ) }.*XXX/.^.^.k.",
"Z.W./. X;X=XQ.A n n 9 : , 3 e z z z A U U C H U U n x N n e 9 n ( D n n Q T z z n C n z A Y T Z A Y M z z b z 0 , & , e b Y ) `.#X X^.!.!.k.",
"Z.W.W.W.`.W.Y M z e 2 $ % : 2 9 2 , 9 9 0 z 0 e e 0 9 0 e n C C A D Z A D Z C x z e 9 9 0 0 0 e 0 0 3 3 < 3 4 , @ + % 9 r Z H Q ` ` W.` W.k.",
"V.( _ ) ) Q C r q 4 & X # * - 1 = = ; ; ; 7 7 6 6 6 ; ; h d 7 8 a d d e a a 8 h V 8 - 6 6 6 6 7 7 6 - = = = - * . . o < 9 x M H Q ( ) ` W g.",
"l N A C N b e 2 < # * - 6.s.i.i.i.w.w.s.s.d.d.s.s.d.d.s.f.d.s.i.w.3.q.2.a.s.s.f.f.s.i.i.s.s.s.i.i.3.w.q.y.s.3.3.g - - # : 4 0 z n C A Z b i.",
"j S H S Z D b r t q 6.s.z.G.l.q.t.>.t.v.G.G.G.G.G.G.G.G.G.G.G.a.-.<.-.a.N.G.G.G.G.G.M.M.N.G.N.n.,.q.-.e.c.G.N.N.s.s.s.g q e e S Q Y D W x y.",
"j V L L V L V d h h 7.G.G.G.x.,.>.=.a.v.G.G.G.G.G.G.G.G.G.G.N.l.<.<.r.x.N.G.G.G.G.G.G.G.G.G.N.c.e.-.q.a.c.N.G.G.G.G.G.j h h d V / L L W V s.",
"m.h.B.m.B.B.d.d.f.s.N.G.G.G.x.r.t.x.v.N.G.G.G.G.G.G.G.G.G.G.G.v.l.n.M.v.G.G.G.G.G.G.G.G.G.G.G.v.4.a.M.v.N.G.G.G.G.G.G.f.f.f.f.f.B.h.h.B.d.m.",
"N.G.N.N.N.N.N.N.G.G.G.G.G.G.N.M.v.v.N.G.G.G.G.G.G.G.G.G.G.G.G.G.G.G.G.G.G.G.G.G.G.G.G.G.G.G.G.G.v.G.G.G.N.G.G.G.G.G.G.G.G.G.G.G.G.G.G.G.N.G."
};
