/* XPM */
static char *player21742303295[] = {
/* columns rows colors chars-per-pixel */
"70 70 236 2 ",
"   c #1A1C26",
".  c #1B1E29",
"X  c #1D2326",
"o  c #1C252A",
"O  c #1B2A2E",
"+  c #013333",
"@  c #063A3B",
"#  c #222B25",
"$  c #262328",
"%  c #263325",
"&  c #293A25",
"*  c #262B36",
"=  c #303436",
"-  c #4C2F2F",
";  c #2D4C2B",
":  c #344925",
">  c #3B5726",
",  c #2F6728",
"<  c #415F25",
"1  c #454B33",
"2  c #476B25",
"3  c #4D752A",
"4  c #527E25",
"5  c #363740",
"6  c #333A43",
"7  c #30304D",
"8  c #32344D",
"9  c #3D3B64",
"0  c #663341",
"q  c #144549",
"w  c #1E5459",
"e  c #1D565B",
"r  c #295357",
"t  c #1F5D61",
"y  c #3C536E",
"u  c #226361",
"i  c #22696B",
"p  c #257776",
"a  c #377671",
"s  c #5C5958",
"d  c #424961",
"f  c #494A6A",
"g  c #4A566D",
"h  c #4E4D73",
"j  c #485774",
"k  c #526973",
"l  c #6B7570",
"z  c #881C2B",
"x  c #AC162D",
"c  c #BD1420",
"v  c #932029",
"b  c #C4131C",
"n  c #D31212",
"m  c #8C4D32",
"M  c #9B5A3A",
"N  c #A15735",
"B  c #A55D3C",
"V  c #977E28",
"C  c #CD7900",
"Z  c #915A43",
"A  c #886F45",
"S  c #A17951",
"D  c #1F8A2B",
"F  c #1C9C2C",
"G  c #24942D",
"H  c #2C912B",
"J  c #239D2C",
"K  c #18A22C",
"L  c #24A22B",
"P  c #2CA52A",
"I  c #31A92D",
"U  c #38A82A",
"Y  c #5DB21F",
"T  c #6BB21E",
"R  c #6ABC1E",
"E  c #588825",
"W  c #549425",
"Q  c #629824",
"!  c #46AC28",
"~  c #56A623",
"^  c #4CB128",
"/  c #59B725",
"(  c #47AC37",
")  c #67A723",
"_  c #6DAC23",
"`  c #71AF26",
"'  c #63BC25",
"]  c #69BB23",
"[  c #74B923",
"{  c #6DC11F",
"}  c #75C31E",
"|  c #79C61E",
" . c #7BC81E",
".. c #6CC224",
"X. c #6DC12B",
"o. c #73C522",
"O. c #7BC622",
"+. c #7ECB22",
"@. c #78C925",
"#. c #76C336",
"$. c #378A7C",
"%. c #688E68",
"&. c #929416",
"*. c #BDB810",
"=. c #BD9129",
"-. c #B3A537",
";. c #CD851C",
":. c #E29712",
">. c #C9B21E",
",. c #CF8C33",
"<. c #D9B03A",
"1. c #FCBD30",
"2. c #83CD1B",
"3. c #81CD23",
"4. c #88CE27",
"5. c #84CD2B",
"6. c #89CE36",
"7. c #8DD137",
"8. c #91D33A",
"9. c #FFDC04",
"0. c #FCD808",
"q. c #FFD71B",
"w. c #FFFF04",
"e. c #FFE215",
"r. c #ECC226",
"t. c #FFC02A",
"y. c #E2DA27",
"u. c #AF8357",
"i. c #A5A068",
"p. c #C99C46",
"a. c #DC974A",
"s. c #C7935D",
"d. c #D7A949",
"f. c #E5AB41",
"g. c #EEAF57",
"h. c #D9A16D",
"j. c #EBB173",
"k. c #98D44A",
"l. c #96CF50",
"z. c #ABD455",
"x. c #A7D759",
"c. c #98D175",
"v. c #B3D566",
"b. c #BDE162",
"n. c #DAC549",
"m. c #F6C95D",
"M. c #CDE356",
"N. c #F7CA6D",
"B. c #CBE564",
"V. c #237E80",
"C. c #337B83",
"Z. c #5E5D8D",
"A. c #575191",
"S. c #5E5A97",
"D. c #625E9A",
"F. c #51648A",
"G. c #5C748B",
"H. c #5C7A91",
"J. c #69738E",
"K. c #6A67A2",
"L. c #6D76A3",
"P. c #7477A1",
"I. c #7271AB",
"U. c #7C7DB3",
"Y. c #865684",
"T. c #9C6588",
"R. c #238585",
"E. c #288B89",
"W. c #2E8F8B",
"Q. c #2B9891",
"!. c #2EA69C",
"~. c #2FAEA4",
"^. c #39A9A0",
"/. c #30B3A7",
"(. c #36BAAB",
"). c #50928E",
"_. c #778B88",
"`. c #65879A",
"'. c #43A293",
"]. c #42B39D",
"[. c #75B289",
"{. c #678BA0",
"}. c #6A8FA3",
"|. c #6C92A6",
" X c #6E95A9",
".X c #7295A7",
"XX c #769DAF",
"oX c #7F81B5",
"OX c #4EB6A9",
"+X c #6CB3AC",
"@X c #3BC2B1",
"#X c #49CCB8",
"$X c #4DD2B9",
"%X c #6AC9B7",
"&X c #4DDBC2",
"*X c #53DAC3",
"=X c #7DEDD3",
"-X c #969294",
";X c #B3918D",
":X c #8386B8",
">X c #888CBC",
",X c #82A3B4",
"<X c #8AA7B2",
"1X c #87A8B8",
"2X c #A4ABA8",
"3X c #D1998F",
"4X c #DE9E8C",
"5X c #CC9695",
"6X c #D4AC96",
"7X c #E3AA95",
"8X c #C58FAA",
"9X c #D5B4A9",
"0X c #E8B9AA",
"qX c #F3BFAD",
"wX c #8CD590",
"eX c #A9C18F",
"rX c #B0D4AA",
"tX c #CDC6A8",
"yX c #E9C5B1",
"uX c #949FC3",
"iX c #A5A4D0",
"pX c #9EC4CA",
"aX c #A3CDD4",
"sX c #BBCBD3",
"dX c #ABD5DA",
"fX c #88F1D3",
"gX c #BDDEE2",
"hX c #D3D4CF",
"jX c #E9C3C4",
"kX c #EDD1D6",
"lX c #CCDAE1",
"zX c #E0E0E2",
"xX c #E3EAEE",
"cX c #EEF2F5",
"vX c #F5F7F8",
"bX c #FFFFFF",
/* pixels */
"3.3.3.+.o.+.' ' @.3.3.3.3.3.3.3.3.3.3.3.3.3.+.+.3.3.3.3.3.3.3.3.3.3.3.3.3.3.3.3.+.3.3.3.3.@./ o.! I O.+.3.3.3.3.3.3.3.3.3.3.3.3.+.+.3.+.+.3.",
"3.3.+...I / J / +.3.3.3.3.3.3.3.3.+.+.+.+.@...@.+.3.+.+. .3.3.O.O.+.O.O.O.3.O.O.O.} O.3.3.O.U P J ^ | 3.3.3.3.3.3.3.3.3.3.4.3.3.@.+.o.@.3.3.",
"3.3.3.o.P L J R  .3.3.3.3.3.3.3.+.+.@./ ../ I o.+.3.+.+.+.3.4 ; : & : : : & & : : : 2 3.3.| / L / }  . .3.3.3.3.3.3.3.3.3.3.+.o.....I ' +.3.",
"3.3.3.} Y / } | +.+.3.3.3.3.3.3.+.+. .! K K ^ @.+.+.+.+.+.3.2       .         .   X > +.+.+.} R  . .3.3.3.3.3.3.3.3.3.3.3.3.+./ J U J } +.3.",
"3.3.3. . .+.3.3.3.3.3.+.3.+.3.3.3.3.@./ P / {  .3.3.3.+.3.3.2 .                     : +.3.3.+.+.3.3.+.+.+.3.3.3.+.+.3.3.3.3.3.} L ^ Y | +.3.",
"3.3.3.3.3.3.3.3.3.3.3.3.@.+.3.3.3.3. .| {  . .3.3.3.3.3.+.4.2                     X : +.3.3.3.3.+.3.O.+.3.@.3.@...+.3.3.3.3.+.| R o. .+.+.3.",
"3.3.3.3.3.3.3.3.3.3.3.3.3.+.3.3.3.3.7.7.3.3.3.3.3.3.E : > > &.*.*.*.*.=.=.=.,.=.=.=.V : : > 2 O.3. .3.3.O.^ ..! I o.3.3.3.3.+.+.3.3.3.3.3.3.",
"3.3.3.3.+.+.+.3.3.3.3.3.3.3.3.+.+.7.B.b.7.3.3.3.3.3.> X     &.w.w.w.e.t.t.t.t.t.t.t.,.      : z.k.+.+.3.o.^ F F ^ | 3.3.3.3.3.3.3.3.3.3.3.3.",
"3.@.o.O.' ' +.3.3.3.+.+.+.@.@.3.+.6.x.z.5.+.+.+.+.O.<       &.w.w.w.e.t.t.t.t.t.t.t.=.      ; B.v.5.+.+.| ' U ..}  .3.3.3.3.3.3.3.3.+.3.+.+.",
"+...I / J /  .3.3.3.o...o.U X.+.3.3.5.5.3.@...| ] ~ <       &.w.w.w.e.t.1.1.t.t.t.t.=.  . . = l.8.3.3.+. .} } +.3.3.3.3.3.3.3.3.+.@.+.@...@.",
"+.o.L L I ]  .3.3.+./ L U G ..+.3.3.+.3.3.o., ; ; ; l -X-X-Xd.e.q.q.r.d.a.f.,.:.:.,.;.A A Z s < < < < < < < 2 [ 3.3.3.3.3.3.3.3.o.! / P U +.",
"3.} Y ' }  .3.3.3.+.R L ^ / } +.3.3.3.5.3.O.;       ;XkXkXkXN.t.t.1.f.s.s.s.,.C C C C s.s.a.S .   o         % [ 3.3.3.3.3.4.3.3.| ^ F F /  .",
"3. . . .3.3.3.3.3. .} R }  . .3.3.3.8.b.k.3.:       -XkXkXkXN.t.t.t.f.s.s.s.p.C C C ;.s.s.s.S $             % [ 3.3.3.3.7.x.8.3.| R ! R } +.",
"3.3.3.3.3.3.3.3.3.3.3.3.3.3.3.3.O.5.l.B.x.4.:       -XkXkXkXqXq.t.t.f.s.s.s.,.C C C ;.s.s.s.S $           . % [ 3.3.3.4.x.B.x.3.+. .o.+.3.3.",
"3.3.3.3.3.3.3.3.3.3.3.3.3.o.4 2 2 2 3 3 3 2 = 6 7 6 ;XjXjXjXj.:.:.:.;.,.,.,.,.a.h.a.a.;.,.,.S -X-X-X-X-X-X-X-X3 2 2 3 [ 8.k.3.3.3.3.3.3.3.3.",
"3.3.3.3.3.3.3.3.3.3.3.3.O./ &         . . . 5 y d y ;XqXqXqXa.C C C C C C C a.qXqXqX7XC C C :.bXbXbXbXbXbXbXzX=   X # ` 3.3.3.3.3.3.3.3.3.3.",
"3.3. .@.3.3.3.3.+.+.+.+.+.! %               8 d d d ;XqXqXqXa.C C C C C C C ,.qXqXqXj.C C C ,.vXbXbXbXbXbXbXzX5     # ` +.3.3.3.3.3.3.3.3.3.",
"o.o.U R  .3.+.+.+.o.o.+. ./ + X             8 d d d ;XqXqXqXa.C C C C C C ;.a.qXqXqX7XC C C f.vXbXbXbXbXbXbXzX5     o ` 3.3.3.3.3.3.3.3.3.3.",
"K U G { 3.3.o./ o.U 2 4 4 3 l T.%.J.l l l k g d d d i.m.m.m.g.a.a.a.p.-.-.-.h.jXyXjXtX-.-.u.i.2XiX2XpXsXsXsXsXJ.k k l E 4 E E [ 3.+.3.3.3.3.",
"F U Y } k.k.X.L U D O     = zXbXbXbXgXdXdXdXG.d d d >.9.0.0.m.qXqXqXtXwXwXwXrXkXkXkXyXwXwXwXwXd d d g `. X X.XaXdXdXpX6     $ ) 3.+.3.3.3.3.",
"T [ O.7.B.B.#.! U ~ #   . * hXbXbXbXgXdXdXdXG.d 9 y =.9.9.9.m.qXqXqXtXwXwXwXrXkXkXkXyXwXwXwX[.d d d g }..X XXXaXdXdXpX6     X ) 3.3.3.3.3.3.",
"@.2.3.5.k.8.+...O.[ % . . = hXbXbXbXgXdXdXdXG.d y y -.9.9.9.N.qXqXqXrXwXwXwXrXkXkXkXhXwXwXwX[.f d d g .X X XXXaXdXdXpX6     X ) 3.3.3.3.3.3.",
"+.3.3.3.3.[ Q E E E s l l J.sXlXlXlX1X<X<X,Xu.4 A &.>.r.r.r.m.j.j.N.6XeXeXeXtXkXkXkXyXwXeXeX-Xd d d g `. X XXXaXdXdXpX6     X ) 3.3.3.4.3.3.",
" .3.3.4.k.l.#   . 5 zXbXbXvX1X X X}.j d d f >.0.9.9.<.s.s.s.f.t.t.t.g.4X4X4X9XkXkXkXjX7X4X6Xs.f d d g .X X XXXaXdXdXpX6     X _ +.3.3.3.3.3.",
"4.8.2.8.b.l.$ . . 5 zXbXbXvX1X X X|.g d d d >.9.9.9.<.s.s.s.f.t.t.t.g.4X4X4X0XkXkXkXjX4X4X4X;Xf d d g `. X XXXaXdXdXpX6 .   X ) ] @.3.3.3.3.",
"x.B.k.2.k.` # .   5 zXbXbXcX1X X X|.g d d d >.9.9.9.<.s.s.s.f.t.t.t.g.4X4X4X0XkXkXkXjX3X4X4Xs.d d d g |. X XXXaXdXdXpX6       H U O.3.3.3.3.",
"l.x.8.3.] ) #     5 zXbXbXvX1X X X Xj d d d >.9.9.9.<.s.s.s.f.t.t.t.g.3X3X5X9XjXjXjX9X3X3Xh.;Xf d d g |. X XXXaXdXdXpX6     X D ^  .3.3.3.3.",
"@.X.^ ' G ~ #     5 zXbXbXvX1X X X Xg d d d >.9.9.9.f.s.s.p.f.t.t.t.j.8X8X8X8X8X8X8X5Xs.s.s.S f d d g |. X XXXaXdXdXpX6     X W }  .3.3.3.3.",
"+...F P L ~ #     5 zXbXbXcX1X X X|.j d d d >.9.9.9.<.s.s.s.f.t.t.t.g.8X8X8X8X8X8X8X5Xs.s.s.S d d d g }. X XXXaXdXdXpX6     X ) 3.3.3.3.3.3.",
"+.o.! / R _ #     5 zXbXbXvX1X X X|.g d d d >.9.9.9.<.s.s.s.f.t.t.r.h.8X8X8X8X8X8X8X5Xs.s.s.u.9 d d g }. X XXXaXdXdXpX6     $ _ 3.3.3.3.3.3.",
"3.+.| +.3._ %     5 zXbXbXvX1X X X|.g d d d -.y.y.y.n.d.a.d.d.n.n.n.h.6X3X5X5X2X2X8X8Xi.i.i.i.y d d g }. X XXXaXdXdXpX6     X ) 3.3.3.3.3.3.",
"3.3.+.+.3._ #     5 zXbXbXcX1X X X|.j d d d %XfXfXfXM.9.0.0.c.*X*X$XeX1.t.r.h.*X*X*X$X*X*X*XOXd d y g }. X XXXaXdXdXpX6     $ ) 3.3.3.+.3.+.",
"3.3.3.3.3._ #   . = zXbXbXvX1X X X|.j d d d +XfXfXfXM.9.9.9.c.&X*X*Xc.t.t.t.v.*X&X&X&X&X&X&XOXy y d f `. X XXXaXdXdXpX6     o ) +.+.O.' o.+.",
"4.3.3.3.3.` #     6 zXbXbXvX1X X X.Xj d d f %XfX=XfXM.9.9.w.c.&X&X&Xc.t.t.t.v.&X&X&X&X&X&X&XOXf d d g |..X.XXXaXdXdXpX6     # ~ ^ ^ ! P o.+.",
"3.3.3.3.3.` #     5 zXbXbXvX1X X X|.g d d d +X=X=X=XM.y.y.y.c.@X$X$Xc.<.<.<.i.$X#X#X#X&X&X&X(.a j j k {.}.}. XpXaXaXuX6     $ ) / J P ! } +.",
"3.+.+.+.+.) #     5 zXbXbXvX1X X X|.j d d d OX*X&X&X].].].!.!.E.E.E.R.$.$.$.$.W.E.E.Q./././.(.#X#X#X#XH.H.H.H. XXXXX|.=     X ) R ! { } O.+.",
"3.+.o...] H #     5 zXbXbXvX1X X X|.g f d d OX&X&X&X#X/././.Q.R.R.R.R.R.E.R.R.R.R.R.E.~././.(.&X&X&X#XH.G.G.H.|. X X`.7     X )  .@. .3.3.3.",
"3.+.' K U D #     5 zXbXbXvX1X X X|.g d d r OX$X&X&X@X/././.Q.R.R.R.R.R.R.R.R.R.R.R.Q.~././.(.*X&X&X#XH.G.G.H. X X|.`.*     $ ) 3.3.3.3.3.3.",
"3. .] L ! ~ $     5 hXcXcXxX,X|.|.{.j y y y /.&X$X&X@X~.~.~.E.V.R.V.R.V.p $.$.R.V.V.E.~./.~.(.*X$X$X%XG.G.J.k H.`.`.).= # # % _ 3.5.3.3.3.3.",
"3.3.| R o._ #     * .X,X,X,XH.H.H.G.C.$.p $.!.(.(.(.Q.R.R.R.p t e e t e t t t e t t i E.E.E.).tXyXyX6XS M Z Z = * O * E T ` [ +.3.3.3.3.3.3.",
"3.3.3.3.3.` #   . * `. X X|.H.G.G.G.E.V.R.R.!./././.Q.R.R.R.i e e e e e w w w w w w u $.R.R.).0XqXqX7XB N N N $ o   # _  .3.3.3.3.3.3.3.3.3.",
"3.3.3.3.3.` #   X * `.|. X|.G.G.H.G.R.R.R.R.!./././.Q.R.R.R.i e e e e e w w w w w w t $.R.R.).0XqXyX7XB N N m $     # `  .+.3.3.3.3.3.3.3.3.",
"3.3.3.3.3.` & $ o * `.`.`.{.G.J.G.G.W.R.W.E.!./././.Q.V.R.R.i w w e q e w w q w e q t R.$.p ).0X0X0X6XB N N m $     O ` 3.+.o.+.3.3.3.3.3.3.",
"3.3.3.3.3.O._ T ) Q ; = 6 = s B Z Z 5X9X6X9X+X/./.~.p t t t q @ + @ @ @ @ @ @ + @ @ q t t t i OXOXOX[.N N N m $     # ~ @./ U o.3.3.3.+.+.3.",
"3.3.3.3.3.3.3.+.] ~ %     $ m N M B 7XqXqXqX+X/././.p e w w q + + + + + + + + + + + @ e e w i ~.(./.'.Z N N m $     % H U J ! @.+.3.3.+.3.3.",
"3.3.3.3.3.3.3.+.] G O       m N N N 7XqXqXqX+X/././.p e w w q + + + + + + + + + + + @ w w w i /././.'.Z N N m $     # W L ^ R | 3.3.3.3.3.3.",
"3.3.3.3.3.+.3.+.] H $       m M N N 7X0XqXqXOX/././.p w w w q + + + + + + + +   + + @ w w w i ~././.'.B N N m $     # ) R  . .3.3.3.3.3.3.3.",
"3.3.3.+. .3.3.3.| ) %     $ m N N N %.).).).^./.~.~.p w w w 0 z z z v x x v v v z z 0 w w w i /./.(.Q.= - % - Q ) ) _ o.3.3.3. .3.3.3.3.3.3.",
"3.3.3.3.+.3.3.3.3.[ %     $ m M N M a R.R.R.!./././.p e w w 0 x x x c n n n b x x x z e w w i /././.Q.#     % [ 3.3.3.3.3.3.3.3.3.3.3.3.3.3.",
"3.3.3.3.3.3.3.3.3.[ %     $ m N M M k R.R.R.!./././.p e w w 0 x x x c n n n b x x x z r w w i ~././.Q.#     % [ 3.O.3.3.3.3.3.3.3.3.3.3.3.3.",
"3.3.3.3.3.3.3.3.3.[ % .   X m M M M a R.R.R.!./././.p e w w 0 c x x b n n n b x x x v e w w i ~././.Q.O     & ~ ] +.3.3.+.+.+.3.3.3.3.3.3.3.",
"3.3.3.3.3.3.3.3.3.+.Q Q Q E - - - - ^.OX@X@X(./././.p w w r h Z.Y.Y.T.T.T.T.T.Z.Y.Y.h w w w i ~././.Q.O     % F / +.3.3.+.5.7.4.3.3.3.3.3.3.",
"3.3.3.3.3.3.3.3.+.+.+.@. .T &     . ].&X&X&X(./././.p w w w F.K.I.I.U.:X>X>XoXI.U.I.D.t w w i ~././.Q.*     # D ] @.3.3.3.8.B.l.3.3.3.3.3.3.",
"3.3.3.3.3.+.+.+.+.+./ / / J %     . ].&X&X&X@X/././.p w w w F.I.I.I.U.>X>X>XoXI.I.I.F.t w w i ~././.Q.O     % ) } +.3.3.2.7.v.x.2.+.3.3.3.3.",
"3.3.+.+.+.X.@.+.+.+./ F J P % X   O ].&X&X&X@X/././.p t w w F.I.I.U.U.>X>X>XoXI.I.I.F.t w w i ~././.Q.O     # ` 3.3.5.k.k.7.7.7.3.7.8.5.3.3.",
"3.3...' ' L ..+.7.5.R P Y Y &     o ].&X&X&XQ.p p p i j y A.F.U.oXT.I.K.K.K.I.oXoX:XK.t w w w w r w r E E E E o. .3.5.b.B.8.+.+.3.x.B.l.+. .",
"3.3./ F P F } 7.b.b.6...| [ & .   X ].&X&X&Xa e w w F.A.A.A.I.>X>X>XI.A.A.A.K.:X>X>XL.e e e w       & T O.^ ..3.3.3.3.8.x.6.+.+.@.l.x.( #.#.",
"3.2.R L ^ R | 6.b.x.5.+.+.6.=       ].&X&X&Xp w w e y A.A.A.I.>X>X>XL.A.A.A.K.>X>X>XL.e e e q       % U ! J o.3.3.3.3.3.+.+.+.+./ L U G ..+.",
"3.3. .{ }  .3.3.5.5.8.k.3.l.: .   X ].*X&X&Xp t w w j A.A.A.I.:X>X>XI.A.A.A.K.>X>X>XL.e e e e       % G ! ^ }  .3.3.3.3.3.3.3.+.{ L ! / o.@.",
"3.3.3.3.3.3.3.3.+.5.b.B.8.3.E 2 4 , a p a p y y y y Z.I.K.I.U.U.U.U.S.9 7 7 A.K.I.K.D.F.F.y y       & ~ } |  .3.3.3.3.3.3.3.3.+.} R {  .+.3.",
"3. .3.3.3.3.3.3.+.5.k.x.6. .o.P ! H &     X h A.A.A.I.>X>X>XU.I.I.I.f   .   7 A.A.A.A.I.I.I.Z.$     & [ 3.3.3.3.3.+.+.+.+.+.+.3.3.3.+.3.3.3.",
"3.+.+.3.3.3.3.3.+.+.+.4.3.+.O.! J ! & .     9 A.A.A.I.>X>X>XU.I.I.I.f   . . 7 A.A.A.S.I.I.I.Z..     & [ 3.3.3.+.3.+.@.+.+.+.+.3.3.3.3.3.3.3.",
"3.+.3.3.3.3.3.3.3.3.+.+.@.5.8.#.] [ & .     9 A.A.A.I.>X>X>XU.I.I.I.j .     7 A.A.A.S.I.I.I.Z..     & 3.3.3.+.X.+...! o.3.+.+.3.3.3.3.3.3.3.",
"3.3.3.+.3.3.3.@.+.3.3.O.+.6.B.B.7.3.4 2 < < y 9 9 9 I.uXuX>XK.h h h 1 2 < 2 r 9 9 9 h K.K.D.S.f d d s 4 4 E E U U K U  .3.3.3.3.3.3.3.3.3.3.",
"3.3.3.3.@.o.@.^ .. .3.3.3.5.x.k.5.+.+.+.3.3.:       J.iXiXiXs $     2 }  .+.E       7 A.A.A.S.:X>X>XP.*     # ~ G ^ '  . .3.3.3.3.3.3.3.4.3.",
"3.3.3.+./ U ^ L R 3.3.3.3.3.5.@.+.] X.+.3.3.>       J.iXiXiXh .     , ^  .+.E       * A.A.A.D.>X>X>XI.*     % ) ]  .|  .3.3.3.3.3.3.3.3.3.3.",
"+.+. .3.R L U ! }  .3.3.3. ...U / L / @.3.3.:       J.iXiXiXl       ; .. .3.Q       7 A.A.A.S.XX>X,XP.*     % T  .3.3.+.3.3.3.3.3.3.3.3.3.3.",
"+.3.3. .| Y {  . .3.3.3.3.3.} I L K R @.3.3.4 > > > %.2X-XeXl : ; : H }  .3.) > > > < l l l %.-X_.`.%.> > > 2 [ 3.3.3.3.3.3.3.3.3.3.3.3.3.3.",
"3.3.3.3. . .3.3.3.3.3.3.3.3.} / / R | 3.3.3.3.3.3.3.3.3.3.3.3.+.o.o. .+.3.3.3.3.3.3.3.3.3.3.3.O.R ]  . . .3.3.3.3.3.3.3.3.3.3.3.3.3.3.3.3.4.",
"3.3.3.3.3.3.3.3.3.3.3.3.3.3. .|  .3.3.3.3.3.3.3.3.3.3.3.3.3.3.+.+.3.+.+.3.3.3.3.3.3.3.3.3.3.3.3. . .3.3.3.3.3.3.3.3.3.4.3.3.3.3.3.3.3.3.3.3."
};
