/* XPM */
static char *player1742303296[] = {
/* columns rows colors chars-per-pixel */
"70 70 231 2 ",
"   c #261F1D",
".  c #3A2911",
"X  c #1A1C26",
"o  c #1D2226",
"O  c #1E242A",
"+  c #1E3527",
"@  c #282427",
"#  c #212A25",
"$  c #263125",
"%  c #2A3826",
"&  c #262933",
"*  c #2C3235",
"=  c #37373B",
"-  c #4D0F15",
";  c #4E0A1A",
":  c #4A181E",
">  c #730D14",
",  c #7E0E13",
"<  c #6A1015",
"1  c #731619",
"2  c #4F2D06",
"3  c #512C00",
"4  c #582F00",
"5  c #593306",
"6  c #4E2F16",
"7  c #553516",
"8  c #653C04",
"9  c #7E3E18",
"0  c #511724",
"q  c #4C3B22",
"w  c #443936",
"e  c #2C4927",
"r  c #334825",
"t  c #395125",
"y  c #3B5826",
"u  c #25682A",
"i  c #6B470D",
"p  c #6D661A",
"a  c #415D27",
"s  c #6C422E",
"d  c #6E542D",
"f  c #466724",
"g  c #497724",
"h  c #577A27",
"j  c #527D24",
"k  c #536435",
"l  c #71682D",
"z  c #2C3542",
"x  c #343B46",
"c  c #3D3F4B",
"v  c #453C45",
"b  c #2F434C",
"n  c #3A4549",
"m  c #3A434C",
"M  c #384752",
"N  c #464643",
"B  c #495554",
"V  c #656453",
"C  c #515C63",
"Z  c #615E64",
"A  c #686669",
"S  c #76716F",
"D  c #801012",
"F  c #963512",
"G  c #A92C05",
"H  c #AA3306",
"J  c #BA3900",
"K  c #B5360E",
"L  c #8E3223",
"P  c #8F4A03",
"I  c #9C5103",
"U  c #A25302",
"Y  c #AE5800",
"T  c #B15C05",
"R  c #AD5012",
"E  c #9D7907",
"W  c #867616",
"Q  c #B06C17",
"!  c #A15735",
"~  c #916A2A",
"^  c #A0682E",
"/  c #D25009",
"(  c #E55905",
")  c #EF6706",
"_  c #FC6A08",
"`  c #DB722A",
"'  c #8C6749",
"]  c #BC7F40",
"[  c #B3794D",
"{  c #AD7450",
"}  c #8C7D71",
"|  c #B77D60",
" . c #CA764C",
".. c #1E862B",
"X. c #1C9D2C",
"o. c #26942C",
"O. c #239C2C",
"+. c #30912C",
"@. c #18A22C",
"#. c #24A22B",
"$. c #2CA52B",
"%. c #39A92A",
"&. c #24A131",
"*. c #62A91E",
"=. c #65BB1E",
"-. c #6DBE1E",
";. c #70B91E",
":. c #498F27",
">. c #578726",
",. c #5B8D23",
"<. c #599923",
"1. c #649B24",
"2. c #649C29",
"3. c #699337",
"4. c #46AD28",
"5. c #55AA26",
"6. c #4CB129",
"7. c #5BB522",
"8. c #58B726",
"9. c #69A523",
"0. c #6BAA22",
"q. c #63BC24",
"w. c #68BA23",
"e. c #75BA23",
"r. c #77AB33",
"t. c #6EC11F",
"y. c #74C31E",
"u. c #79C61E",
"i. c #7BC91E",
"p. c #6CC225",
"a. c #74C522",
"s. c #7AC522",
"d. c #77C822",
"f. c #7ECB22",
"g. c #72C333",
"h. c #6FA448",
"j. c #B28F1C",
"k. c #A89311",
"l. c #AE9B10",
"z. c #A98728",
"x. c #84BD3A",
"c. c #D3960E",
"v. c #D8AA15",
"b. c #DAA32A",
"n. c #EAAB23",
"m. c #FBBC2C",
"M. c #E6B631",
"N. c #F0B437",
"B. c #82CD1B",
"V. c #81CD23",
"C. c #88CE27",
"Z. c #84CD2B",
"A. c #89CD37",
"S. c #8DD037",
"D. c #90D338",
"F. c #E8C503",
"G. c #FFDC04",
"H. c #FFD40E",
"J. c #FFCD17",
"K. c #FFD211",
"L. c #FFC524",
"P. c #FFC02A",
"I. c #FEDD28",
"U. c #959F5B",
"Y. c #BD825C",
"T. c #8B8378",
"R. c #C3884D",
"E. c #CE9752",
"W. c #C7935D",
"Q. c #D19B54",
"!. c #EB8B4F",
"~. c #E1AD44",
"^. c #CE9168",
"/. c #E8956F",
"(. c #D4AD75",
"). c #FEA464",
"_. c #F7A677",
"`. c #98D349",
"'. c #98D252",
"]. c #ADDA54",
"[. c #A8D858",
"{. c #B4DB63",
"}. c #BEE162",
"|. c #F8D356",
" X c #CCE564",
".X c #FDE777",
"XX c #5A748D",
"oX c #5C7991",
"OX c #667B92",
"+X c #658599",
"@X c #698EA3",
"#X c #6B90A5",
"$X c #6E95A9",
"%X c #7196A8",
"&X c #739AAD",
"*X c #7CA4B4",
"=X c #6EB0C7",
"-X c #6FBDD5",
";X c #78BDD2",
":X c #8F8784",
">X c #968F85",
",X c #A89E91",
"<X c #B1A498",
"1X c #859CA9",
"2X c #86A7AD",
"3X c #DB9C86",
"4X c #DE9E8C",
"5X c #D49897",
"6X c #DAB582",
"7X c #D5A792",
"8X c #EEAC8F",
"9X c #C48EA6",
"0X c #C58FAA",
"qX c #CA95A6",
"wX c #D0AAAB",
"eX c #E7B9AA",
"rX c #F3BFAD",
"tX c #E5D5A0",
"yX c #EDDEA2",
"uX c #F2DDBB",
"iX c #F3E7A8",
"pX c #8FBBC8",
"aX c #C2BEC9",
"sX c #9EC5CB",
"dX c #A3CCD2",
"fX c #ABD5DA",
"gX c #D8CCCA",
"hX c #EACCCE",
"jX c #ECD1D6",
"kX c #FCEFC6",
"lX c #FCF1D7",
/* pixels */
"V.V.V.f.d.V.q.q.f.f.V.V.V.V.s.1.1.1.*.V.f.V.a.1.1.1.1.1.1.1.1.1.1.1.1.u.V.V.V.0.2.1.1.e.V.d.7.a.4.$.f.f.V.V.V.V.V.V.V.V.V.V.V.V.f.f.f.f.f.Z.",
"V.V.f.p.$.8.O.8.f.V.V.V.V.V.1.X X X r y.f.s.*.# X X X X X X X X X X o 9.V.V.V.r X X X >.V.s.%.$.O.6.i.f.V.V.Z.V.V.V.C.V.V.V.f.f.f.f.d.d.f.f.",
"V.V.f.a.$.#.#.=.s.f.V.V.V.V.1.X X X r 8.p.6.+.o X X X X X X X X X X O 0.V.V.V.t X X X ,.V.u.5.#.7.-.i.f.V.V.V.V.V.V.V.V.V.V.f.d.p.p.$.p.f.V.",
"V.V.i.u.7.7.y.u.f.V.V.V.V.V.1.X X o % %.X.X.:.+ X X X X X X X X X X O 9.d.V.V.r X X X 2.V.V.y.t.f.f.f.V.V.V.V.V.V.V.V.V.V.V.f.8.X.%.O.e.f.V.",
"V.V.V.V.i.f.V.V.V.V.e.9.9.9.>.M m m B :...:.>.N m m m m m n m m m m N +.:.9.9.B n M m >.9.9.9.;.V.V.f.f.f.V.V.V.V.f.V.V.V.V.f.a.#.6.7.s.f.V.",
"V.V.V.V.V.f.V.V.V.C.,.O X O B fXfXfX2XO o o x sXdXdXfXdXfXdXdXdXfXdXsXn O o # %XdXdXdXC o o o >.f.V.s.f.f.f.f.f.p.f.V.V.V.V.f.i.=.a.i.B.V.V.",
"V.V.V.V.V.V.V.V.V.V.,.X X X B fXfXfX2XO X X x sXfXfXfXfXfXfXfXfXfXfXdXn X X o 1XfXfXfXC X X X j V.f.V.V.a.6.q.4.$.s.V.V.V.V.f.V.V.V.V.V.V.f.",
"V.V.V.V.f.f.f.V.V.V.>.X X X M fXfXfX2XO X X x sXfXfXfXfXfXfXfXfXfXfXdXn X X X 2XfXfXfXC X X X k D.Z.f.V.d.6.X.O.6.a.f.V.V.V.V.V.V.V.V.V.V.V.",
"V.f.a.s.p.q.f.V.V.f.>.X X X M dXdXdX2Xc c x C pXdXdXpXdXdXdXdXdXsXdXsXC x x x 2XdXdXdXC X X X U.{.Z.B.e.9.<.+.5.y.i.V.V.V.V.V.V.f.V.f.Z.f.f.",
"f.p.$.8.X.8.f.V.V.V.>.X X X b &X&X&X*XpXdXpXpX&X&X&X*X&X&X&X%X&X&X&X&XpXsXsXsX*X&X&X$XM X X X 3.`.V.V.j # # # f V.V.V.V.V.V.V.V.f.f.f.d.p.f.",
"f.a.#.#.$.w.f.f.V.f.:.X X X x $X$X$X*XfXfXfXdX&X$X$X$X$X$X$X$X$X$X$X$XsXfXfXfX*X$X$X$XM X X X j f.f.V.j X X X f V.V.V.V.V.V.V.V.a.4.8.$.%.f.",
"f.u.7.q.y.f.f.V.V.f.j X X X x $X#X#X*XfXfXfXdX&X$X$X$X$X$X$X$X$X$X$X&XsXfXfXfX*X$X$X$XM X X X g d.f.i.j X X X f V.V.V.V.V.C.V.V.u.6.X.X.8.y.",
"V.i.i.f.V.V.V.V.f.f.>.X X X x $X$X$X*XdXdXdXpX$X@X@X#X#X#X#X#X#X#X#X$XpXdXdXdX&X+X+X+XM $ + + u 5.e.e.h * x = h e.e.e.e.D.].S.V.u.=.4.t.y.f.",
"V.V.V.V.V.V.V.V.V.f.,.X X X x $X$X$X$X&X&X*X&XoXoXoXoXoXXXXXoXoXoXoXoXoXOXOXOXx & & & >.5.X.+.u $ $ $ S uXgXgXT.& $ $ f [. X'.V.f.f.a.i.V.V.",
"V.V.V.V.V.V.V.V.V.V.,.X X X b $X$X$X$X$X$X$X@XoXXXXXXXXXXXXXXXXXXXXXXXXXXXXXXXz X X X >.w.O.6.y X X X T.lXlXlX,XX X X t D.'.C.V.V.V.V.V.V.V.",
"V.f.V.V.V.V.V.V.V.V.>.X X X x $X$X$X$X$X$X$X@XXXXXXXXXXXXXXXXXXXXXXXXXXXXXXXXXz X X X :.s.w.a.f X X X T.lXlXlX,XX X X t V.V.V.V.V.V.V.V.V.V.",
"V.V.i.i.f.V.V.V.V.V.,.$ # O b @X+X@X@X$X$X$X@XoXOXOXOXoXoX+XOXOXOXOXOXoXoXoXoXz X X X ,.V.f.V.f X X X T.kXkXkX,Xo X X t i.f.f.V.V.V.V.V.V.V.",
"a.a.%.=.f.f.f.f.f.a.w.0.;.<.u & * * M #X$X$X&XwXeXwXwX*X=X=X=XfXgXgXaX;X=X=X-Xb X X X ,.V.V.V.g X X o l I.I.I.z.X X X t f.f.V.f.f.V.V.V.V.V.",
"@.%.o.t.V.f.d.8.p.%.6.s.f.u.<.X O X z #X$X$X1XtXrXrXeX;X-X-X-XgXjXjXjX;X-X-X-Xb X X X 1.V.V.C.f X X o W G.G.G.k.X X X t V.V.V.V.V.V.f.V.V.V.",
"X.%.5.u.D.`.g.#.%.o.w.u.f.f.1.X X X z @X$X%X1XeXrXrXgX;X-X-X;XgXjXjXjX;X-X-X-XM X X X 3.C.i.V.f X X X W G.G.G.k.X X X t V.V.V.V.f.f.V.Z.V.V.",
"7.a.f.D. X Xg.4.%.7.y.f.B.V.1.X X X z @X&X#X1XeXrXrXeXpX-X-X;XjXjXjXjXpX-X-X=Xb X X X U.'.Z.V.f X X X W G.G.G.k.X X o t V.V.V.V.V.V.V.V.V.C.",
"i.i.V.Z.`.`.f.t.a.s.i.B.S.D.1.X X X n tXtXgXtX8X7X7X7X7X7XqXwXhXjXjXjXwXwX5X7XN X X X 3.S.V.V.f X X o W G.G.G.k.X X X t V.V.V.V.V.V.V.V.V.V.",
"V.B.V.f.V.V.f.f.V.s.V.Z.]. Xh.  X X N yXiXiXyX4X4X4X4X4X3X3X4XhXjXjXjXwX4X4X8Xw X X X ,.f.a.a.f X X X W G.G.G.k.X X o t V.V.V.V.V.V.V.V.V.V.",
"V.V.i.V.].[.A.f.V.B.e.Z.'.{.3.X X X N yXiXiXyX4X4X4X4X4X4X4X4XhXjXjXjX8X4X4X4Xv X X o ,.f.6.%.e X X X W G.G.G.k.X X o y V.V.V.V.f.V.V.V.V.V.",
"C.D.B.D.}.}.`.V.V.V.f.f.Z.Z.1.X X X n yXiXiXiX4X4X4X4X4X4X4X4XhXjXjXhX8X5X4X4Xv X X X ,.f.w.o.u X X o W G.G.G.k.X X X t f.d.f.d.w.f.f.V.V.V.",
"[. X].B.S.S.i.S.].S.V.V.V.V.1.X X X N yXiXiXyX6X6X6X7X5XqXqXqXqXwXqX0X5X| | ^.w X X X ,.i.y.=.f X X X W G.G.G.k.X X X t a.6.q.%.%.u.V.V.V.V.",
"'.[.A.i.p.p.Z.[. X[.Z.f.V.V.1.X X X k yXiXiXyX6X6X(.6X9X0X0X0X0X0X0X0X| [ [  .w X X X ,.V.f.f.f X X X W G.G.G.k.X X X t a.4.@.@.6.u.V.V.V.V.",
"f.g.6.8.#.7.f.A.'.V.Z.A.V.V.1.X X X c yXiXiXyX6X6X6X6XqX0X0X0X0X0X0X0X| [ [ { w X X X ,.V.V.V.f X X X W G.G.G.k.X X X t i.w.%.p.y.f.V.V.V.V.",
"f.p.X.$.X.t.f.f.V.Z.`.}.D.f.,.X X X B yXiXiXyX6X6X6X6X9X9X0X0X0X9X9X9X| [ [ [ 6 X X X ,.f.f.f.f X X X W G.G.G.k.X X X t B.u.a.f.V.V.V.V.V.V.",
"f.t.4.8.t.i.B.V.i.A.U.k a f k ' ' ' ' (.(.(.(.(.(.^.(.5X5X5X5X5X5X5X5XY.[ [ { { { { { k a a a . . . . E L.J.J.z.X X X t V.V.V.V.V.V.V.V.V.f.",
"f.f.i.f.i.V.V.V.V.V.3.X o X w W.Y.W.W.W.Q.W.W.W.W.W.W.3X4X4X4X4X4X4X3XY.[ [ { !.).)._.s o X X . 3 3 3 Q P.P.P.z.X X X t V.V.V.V.V.V.V.V.V.V.",
"f.V.f.f.V.V.V.V.V.V.,.X X X a ^.W.W.W.W.W.W.W.W.W.W.W.3X4X4X4X4X4X4X3XY.[ [ [ /.).).).d X X X . 3 2 2 E P.P.P.^ X X X y f.V.V.V.V.V.V.f.V.f.",
"V.V.Z.V.V.f.f.f.V.B.>.X X & a Y.W.W.W.W.W.W.W.^.W.^.^.4X4X4X4X8X4X4X4XW.[ [ [ /.).).).d X X X . 3 3 3 Q m.P.P.z.X X X t f.f.V.f.f.f.s.q.a.f.",
"V.V.V.V.V.f.9.f g g V >X>X>XU.L.M.M.M.M.M.M.P.6XtXtX6XR.`  . .` !.!.` ` ` ` ` ).8X8X8XY.' ' ' i 3 3 3 ~ ~.~.~.~ X X X t Z.f.Z.d.6.6.6.#.a.f.",
"V.V.V.V.f.V.>.X X X A lXlXlXiXG.G.G.G.G.G.G.I.kXlXlXuXQ I T T ) _ _ _ _ _ _ _ 8XrXrXrX_.).).).! 3 3 3 ~ W.W.W.' X X X t V.V.V.f.7.O.$.4.y.f.",
"V.f.f.f.f.d.g X X X A lXlXlXiXG.G.G.G.G.G.G.I.kXlXlXuXQ U T Y ) _ _ _ _ _ _ _ _.rXrXrX8X).).).^ 3 3 3 ~ W.W.W.V X X X t V.V.V.s.-.4.w.y.f.f.",
"V.f.d.p.t.%.g X X X A lXlXlXiXG.G.G.G.G.G.G.I.kXlXlXuXQ U Y Y ) _ _ _ _ _ _ _ _.rXrXrX8X).).).R 3 3 3 ~ W.W.W.' X X o y f.f.V.f.f.a.V.V.V.f.",
"V.f.8.@.%.O.f X X X V .X.X.X|.H.H.H.K.K.K.K.I..X.X.X.XI P P P K K / K ( ( / / /.eX8X8X8X8X_.8XR.E E E j.~.b.M.j.p W W p g j j ,.f.V.V.V.V.V.",
"V.f.a.#.5.7.g X X X p G.G.G.H.P.P.P.P.P.P.P.J.H.G.G.F.5 3 3 4 > D D D G J J J  .4X4X4XrXtXrXrX|.G.G.G.G.G.G.G.G.G.G.G.l.X X X r f.V.V.V.V.V.",
"V.V.i.=.y.i.j X X X p G.G.G.H.P.P.P.P.P.m.m.m.G.G.G.F.8 3 3 3 > D D D G J J K /.4X4X4X8XrXrXuXm.G.G.G.G.G.G.G.G.G.G.G.l.X X X r V.V.V.V.V.V.",
"V.V.V.V.V.V.j X X X p G.G.G.H.P.P.P.P.P.P.P.L.G.G.G.F.i 3 3 3 > D , , G G J J  .5X8X5XrXrXrXrX|.G.G.G.H.G.G.G.G.G.G.G.l.X o X e f.V.V.V.Z.V.",
"V.V.V.V.V.V.j X X X d H.H.H.J.P.P.P.P.P.P.P.L.J.H.H.F.5 3 3 3 < > > < G G G G  . . . ././._._.!.c.c.c.v.v.v.v.c.l.l.k.k.y y y g f.V.V.V.V.V.",
"V.V.V.V.V.V.j X X X d P.m.P.P.P.P.P.P.P.P.P.P.P.P.P.n.8 3 3 3 - ; ; ; > , , D G J J K ( _ _ _ K > , , L ! ! ! s X X X t V.f.y.f.V.V.V.V.V.V.",
"V.V.V.V.V.V.j X X X p P.m.P.P.P.P.P.P.P.P.P.P.P.P.P.n.i 3 3 3 - ; ; ; > , , D G J J J ( _ _ _ K , , , L ! ! ! s X X X r d.8.%.a.V.V.V.f.f.V.",
"V.V.V.V.V.V.j X X X d P.P.P.P.P.P.P.P.P.P.P.P.P.P.P.n.i 3 3 3 - ; ; ; > > , D G J J J ( _ _ _ K , , , L ! ! ! s X X X e %.O.6.y.f.V.V.f.f.V.",
"V.V.V.V.V.V.j X X X d L.P.P.P.N.N.N.N.N.M.~.P.P.P.P.n.5 3 3 2 - ; ; ; > , , D G J J J ( _ _ _ K , , , L ! ! ! s X X X e #.6.=.u.V.V.V.V.V.f.",
"V.V.V.V.f.V.>.X X X d P.P.P.N.W.W.W.W.W.W.W.W.P.P.P.n.8 3 3 3 - ; ; ; > , , , G J J J ( _ _ _ K , , , L ! ! ! s X X X r =.i.i.V.V.V.V.V.V.V.",
"V.V.V.f.i.f.j X X X l P.P.P.N.W.W.W.W.W.W.W.W.P.P.P.n.8 3 3 3 - ; ; ; > , , , G J J J ( _ _ _ K , , , L ! ! ! s X X X t B.V.V.V.V.V.V.V.V.V.",
"V.V.V.V.f.V.>.X X X d L.P.m.N.E.W.W.W.W.W.W.Q.L.P.L.n.i 3 2 3 - ; ; ; 1 , , D G J J J ( _ _ _ K , , , L ! ! ! d X X X t C.V.f.f.V.V.V.V.V.V.",
"V.V.V.V.V.f.j X X X d n.n.n.b.W.W.W.W.W.W.W.Q.n.n.n.c.5 3 2 3 : 0 0 0 1 , , , G J J J ( _ _ _ H < < < L ] ^ ^ L X X X t V.V.V.V.V.V.V.V.V.V.",
"V.V.V.V.f.V.j X X X 6 T T T Q ^.W.W.W.W.W.W.Y.T T T Y 5 3 3 2 w x x v 1 , , , G J J J ( _ _ _ 9 X X X ~ P.m.P.^ X X X t f.V.V.f.V.V.V.V.V.V.",
"V.V.V.V.Z.f.j X X X 6 Y Y Y Q W.W.W.W.W.W.W.R.T Y Y U 5 3 3 2 v c c c 1 , , , G J J J ( _ _ _ 9 X X   l P.P.L.z.X X X t V.Z.S.Z.V.V.V.V.C.V.",
"V.V.V.V.V.V.j X X o 6 Y Y Y Q ^.W.W.W.Q.W.W.R.T Y Y U 4 3 3 2 = c c c 1 , , , G J J J ( _ _ _ 9 X X   ~ m.m.P.z.X X X r B.S.}.[.V.V.V.V.V.V.",
"V.V.V.V.V.V.,.% % % q P I P R R.R.Y.R.Y.R.R. .U U I P 5 2 6 6 v c c v 0 1 1 1 G J J J / / ( ( d % % % l b.b.b.~ % % % f B.D.{.[.B.f.V.V.f.V.",
"V.V.f.f.f.p.a.e.;.e.f @ @ @ q Y T T T T T T I 5 4 4 5 N n N n m c c M v v v v F J J J 7 @ @   h e.e.e.h $ @ . f e.e.d.`.`.A.A.A.V.S.`.Z.V.f.",
"V.V.w.q.q.&.p.f.S.Z.:.X X X 6 Y Y Y Y Y Y Y U 4 3 3 2 n M M M N c c v M c c v F J J J 6 X X X >.B.V.V.j X X X f V.V.C.{. X`.f.f.V.`. X'.f.V.",
"V.f.7.X.$.X.a.S.}.{.>.X X X 6 Y Y Y Y Y Y Y U 4 3 3 6 N M M M c c c c c c c c L J J J 6 X X X h f.f.i.g X X X a V.V.V.D.'.S.f.f.d.`.[.h.8.g.",
"f.f.y.#.6.q.i.S.{.].3.$ $ * q I I U I U U U P 5 7 5 6 v m m m c c c c c c c c L H H H 6 $ $ $ ,.V.f.8.u o + # g V.V.V.V.Z.V.f.f.8.#.%.&.p.f.",
"V.V.f.=.i.i.V.V.Z.V.A.A.e.x.U.  @ @ . 5 8 4 5 V Z V B & O X @ X X & X x c c v @   : @ h e.e.e.e.f.f.=.o.:.4.0.;.f.V.V.V.f.V.V.f.t.#.4.5.p.f.",
"V.V.B.V.f.V.V.V.V.A.{. X`.B.2.X X X   3 3 3 7 A A A Z & X X X X X X X x c c v & X X o ,.f.f.f.f.V.f.;.=.y.u.f.V.V.V.V.V.V.V.V.V.y.t.t.i.f.f.",
"V.f.f.V.V.V.V.V.f.V.`.[.A.f.<.X X X   2 3 4 7 Z A A C & X X X X X X X x c c c & X X X ,.f.V.V.i.f.V.f.i.V.V.V.V.V.f.f.f.V.f.f.V.V.V.V.V.V.V.",
"V.f.f.V.V.V.V.V.V.f.f.C.f.V.1.X X X   5 5 5 7 Z Z Z C & # # # # # # @ v c x c & & & @ >.w.e.e.u.f.V.V.V.V.V.V.f.V.f.d.f.f.i.f.V.V.V.V.V.V.V.",
"V.f.f.V.V.V.V.f.V.V.f.f.V.B.3.X X X = T.>X>X} = & & = 1.0.0.e.0.0.0.2.% X & O Z S S S n + % % ,.f.V.V.V.V.V.Z.p.f.p.4.a.f.V.f.V.V.V.V.V.V.V.",
"V.f.V.V.f.V.V.f.f.V.V.i.f.D.U.X X o w <XqX<X>X@ X X $ e.V.s.f.V.V.V.Z.% X X X A :X:X:XN X X X >.V.V.V.V.V.f.f.%.%.@.%.i.V.V.V.V.V.V.V.V.V.V.",
"V.V.V.f.f.a.i.6.p.f.V.i.V.Z.h.X X X w <X<X<X>X& X X $ e.V.V.V.V.f.f.a.e X X X A :X:X:XN X X X j V.V.f.d.V.V.s.7.O.4.=.u.V.V.V.V.V.V.V.V.V.V.",
"V.V.V.f.q.$.4.#.p.f.V.V.V.V.1.X @ X x ,X<X<X>X* X   $ e.V.V.f.a.p.y.%.% o X o S T.>X:XN o o X >.p.i.q.6.a.V.i.e.=.s.s.i.V.V.V.V.V.V.V.C.V.V.",
"V.f.V.f.-.#.%.6.y.i.V.V.V.V.w.+.4.u <.x.A.x.x.9.9.9.0.Z.V.V.V.w.O.%.O.<.9.9.9.r.x.x.x.r.1.9.9.w.$.6.O.6.f.B.V.i.V.V.V.V.V.V.V.V.V.V.V.V.V.V.",
"f.f.f.f.y.7.p.u.i.V.V.V.V.V.a.$.O.X.q.f.V.V.C.V.V.V.V.V.V.V.f.-.%.%.7.y.i.V.V.V.V.f.f.f.V.V.f.y.6.O.4.w.y.V.V.V.V.V.V.V.V.V.V.V.V.V.V.V.V.V.",
"V.V.V.V.i.i.B.f.V.V.V.V.V.f.y.7.8.-.u.i.V.V.V.V.V.V.V.V.V.V.V.f.t.a.f.f.V.f.V.V.V.V.V.V.V.V.V.f.=.q.s.i.f.V.V.V.V.V.V.V.V.V.V.V.V.V.C.V.V.V.",
"V.V.V.V.V.V.V.V.V.V.V.V.V.f.i.f.u.V.V.V.V.V.V.V.V.V.V.V.V.V.V.f.V.f.f.f.V.V.C.V.V.V.V.V.V.V.V.V.B.f.V.V.f.V.V.V.V.V.V.V.V.V.V.V.V.V.V.V.V.V."
};
