/* XPM */
static char *wall1742303465[] = {
/* columns rows colors chars-per-pixel */
"70 70 35 1 ",
"  c #241D23",
". c #271C22",
"X c #221F25",
"o c #241E24",
"O c #1F2127",
"+ c #1D2329",
"@ c #1F2228",
"# c #1E2328",
"$ c #1E2329",
"% c #18272D",
"& c #16282E",
"* c #142A2F",
"= c #152A2F",
"- c #18282D",
"; c #0D2F35",
": c #0E2F34",
"> c #132B30",
", c #132B31",
"< c #142A30",
"1 c #0B3137",
"2 c #0B3237",
"3 c #0D3035",
"4 c #07353A",
"5 c #06363B",
"6 c #03373D",
"7 c #04373D",
"8 c #0A3238",
"9 c #0A3338",
"0 c #083439",
"q c #003A3F",
"w c #013A3F",
"e c #04383D",
"r c #212026",
"t c #202127",
"y c #003B40",
/* pixels */
"......................................................................",
"..X@OtOOOOttttOOtt@OOOOOOOOOOOOOOOOOOOOOO@OOOOOOOOOOOOOOOOOOOOOOtttX..",
".X&;3;;;;;;;;;;;;;33;;;;;;;;;;;;;;;;;;;;;;;3;;;;;;;;;;;;;;;;;;;;;;;&X.",
".t;qe77qqqqyyyyyyyyyyyyyyyyyyyyyyyyyyyyyyyyyyyyyyyyyyyyyyyyyqq777ey;@.",
".O;q3<<&;qyyyyyyyyyyyyyyyyyyyyyyyyyyyyyyyyyyyyyyyyyyyyyyyyyy73,&<;e;O.",
".O;7<o.X-5yyyyyyyyyyyyyyyyyyyyyyyyyyyyyyyyyyyyyyyyyyyyyyyyyy8&oot<e3O.",
".O;7<o..-5yyyyyyyyyyyyyyyyyyyyyyyyyyyyyyyyyyyyyyyyyyyyyyyyyy5&...&7;O.",
".O;7&o..-5yyyyyyyyyyyyyyyyyyyyyyyyyyyyyyyyyyyyyyyyyyyyyyyyyy5&..t&7;O.",
".t3e3--&;eyyyyyyyyyyyyyyyyyyyyyyyyyyyyyyyyyyyyyyyyyyyyyyyyyye3---3q;t.",
".t;qq555eqyyyyyyyyyyyyyyyyyyyyyyyyyyyyyyyyyyyyyyyyyyyyyyyyyyqq550qq;t.",
".t;yqyyyqyyyyyyyyyyyye08222238388811818888118888eyyyyyyyyyyyyyqqyyy;t.",
".@3yyyyyyyyyyyyyyyyyy0-t@t++++++@@@@+++@@@@@+@@-8yyyyyyyyyyyyyyyyyy;t.",
".O;yyyyyyyyyyyyyyyyyq8-tt....................Xt-0yyyyyyyyyyyyyyyyyy;O.",
".O;yyyyyyyyyyyyyyyyyy70<to...................O<05yyyyyyyyyyyyyyyyyy;O.",
".O;yyyyyyyyyyyyyyyyyyyy0&t.................XX&0yyyyyyyyyyyyyyyyyyyy;O.",
".O;yyyyyyyyyyyyyyyyyyyy72<t................@>16yyyyyyyyyyyyyyyyyyyy;O.",
".O;yyyyyyyyyyyyyyyyyyyyqy7-t..............t&0yyyyyyyyyyyyyyyyyyyyyy;O.",
".O;yyyyyyyyyyyyyyyyyyyyyeq3&+...........t@-3yyyyyyyyyyyyyyyyyyyyyyy;O.",
".O;yyyyyyyyyyyyyyyyyyyyyyqy0<o..........o&5yyqyyyyyyyyyyyyyyyyyyyyy;O.",
".O;yyyyyyyyyyyyyyyyyyyyyyqyq3&+o.......t&3yyeqyyyyyyyyyyyyyyyyyyyyy;O.",
".O;yyyyyyyyyyqyyyyyyyyyyyyyqy0-t......t<7qeyyyyyyyyyyyyyyyyyyyyyyyy;O.",
".O;yyyyyyyq80eyyyyyyyyyyyyyyyy3-+...tt-3qqqyyyyyyyyyyyyye08eyyyyyyy;O.",
".O;yyyyyyy5&%1yyyyyyyyyyyyyyyqq0<t..t<0yeyyyyyyyyyyyyyyy2%&0yyyyyyy;O.",
".O;yyyyyyy;@t>07qyyyyyyyyyyyyyyy3&++-2yyyyyyyyyyyyyyyqe0<t+3yyyyyyy;O.",
".O;yyyyyyy1@Xt&1qyyyyyyyyyyyyyyyy8320eyyyyyyyyyyyyqqqq8&@o@8yyyyyyy;O.",
".O;yyyyyyy8@..X>0eyyyyyyyyyyyyyyqqyyyyyyyyyyyyyyyyyqq7>X..t2yyyyyyy;O.",
".O;yyyyyyy8@..X+&3qqyyyyyyyyyyyyyyyyyyyyyyyyyyyyyyqq;&@o..+2yyyyyyy;O.",
".O;yyyyyyy8@....t<0qqyyyyyyyyyyyyyyyyyyyyyyyyyyyyqq7&.....+8yyyyyyy;O.",
".O;yyyyyyy8@.....@&1qqyyyyyyyyyyyyyyyyyyyyyyyyqqyy3-@X....t2yyyyyyy;O.",
".O;yyyyyyy8+......@&5qqyyyyyyyyyyyyyyyyyyyyyyyeyq0&to....o@2yyyyyyy;O.",
".O;yyyyyyy8@.......@&3qqyyyyyyyyyyyyyyyyyyyyyyey2&+.......+8yyyyyyy;O.",
".O;yyyyyyy3@.......ot-0qyyyyyyyyyyyyyyyyyyyyyyq7&t........t8yyyyyyy;O.",
".@;yyyyyyy8$.........@<2eyyyyyyyyyyyyyyyyyyyye1<t.........@8yyyyyyy;O.",
".X;yyyyyyy8$..........t&2yyyyyyyyyyyyyyyyyyyy2<X..........@2yyyyyyy;O.",
".@;yyyyyyy2$...........+2yyyyyyyyyyyyyyyyyyyy2@...........@8yyyyyyy;O.",
".O1yyyyyyy8$...........t2yyyyyyyyyyyyyyyyyyyy2@o..........@8yyyyyyy;O.",
".O;yyyyyyy1t..........t-2yyyyyyyyyyyyyyyyyyyy2-to.........@8yyyyyyy;O.",
".O;yyyyyyy8@.........t<07yyyyyyyyyyyyyyyyyyyye2<@........o@8yyyyyyy;O.",
".O;yyyyyyy8@.......ot-0yyyyyyyyyyyyyyyyyyyyyyyq0<X........@8yyyyyyy;O.",
".O;yyyyyyy8@.......@<2eyyyyyyyyyyyyyyyyyyyyyyyqq1<@o......@;yyyyyyy;O.",
".O;yyyyyyy2to....Xt&5qqqyyyyyyyyyyyyyyyyyyyyyyyqq0&tX.....+8yyyyyyy;O.",
".O;yyyyyyy2t....X@&3qqyyyyyyyyyyyyyyyyyyyyyyyyyyqq;&@.....@1yyyyyyy;O.",
".O;yyyyyyy0+...o.*5qqyyyyyyyyyyyyyyyyyyyyyyyyyyyqqq0*t....@1yyyyyyy;O.",
".O;yyyyyyy2+...t&1qqyyyyyyyyyyyyyyyyyyyyyyyyyyyyyyqq1&@...+8yyyyyyy;O.",
".O;yyyyyyy2t..t<7yeyyyyyyyyyyyyqyyyyyyyyyyyyyyyyyyyq75&O.o@3yyyyyyy;O.",
".O;yyyyyyy3+tt-2qyyyyyyyyyyyyyyq00228eyqyyyyyyyyyyyyyq8&t@@8yyyyyyy;O.",
".O;yyyyyyy3+t&0eqqyyyyyyyyyyyyqq0-@t&0yqyyyyyyyyyyyyyye0<t@8yyyyyyy;O.",
".O;yyyyyyy0--0yyeqyyyyyyyyyyyqy0<to.t&77qyyyyyyyyyyyyyyy8%&8yyyyyyy;O.",
".O;yyyyyyy6887yyyyyyyyyyyyyyqq3-@....t&0yeyyyyyyyyyyyyyye20eqyyyyyy;O.",
".O;yyyyyyyyyyyyyyyyyyyyyyyyyq5<t......t,8qqqyyyyyyyyyyyyyyyyyyyyyyy;O.",
".O;yyyyyyyyyyyyyyyyyyyyyyqyy1&@ .......@<2yyyyyyyyyyyyyyyyyyyyyyyyy;O.",
".O;yyyyyyyyyyyyyyyyyyyyyyqq5&@..........X&0qqyyyyyyyyyyyyyyyyyyyyyy;O.",
".O;yyyyyyyyyyyyyyyyyyyyyy73&@X...........@<8yqqyyyyyyyyyyyyyyyyyyyy;O.",
".O;yyyyyyyyyyyyyyyyyyyyyq5&t..............t&5yqqyyyyyyyyyyyyyyyyyyy;O.",
".O;yyyyyyyyyyyyyyyyyyyye3<@................@<8eyyyyyyyyyyyyyyyyyyyy;O.",
".O;yyyyyyyyyyyyyyyyyyyy0-t..................X<0yyyyyyyyyyyyyyyyyyyy;O.",
".t;yyyyyyyyyyyyyyyyyy70<@....................+>0eyyyyyyyyyyyyyyyyyy;O.",
".t;yyyyyyyyyyyyyyyyyq8-tt..o.................tt@2yyyyyyyyyyyyyyyyyy;O.",
".t;yyyyyyyyyyyyyyyyyy3&@@@@@++++++++++++@++ttt$&0qyyyyyyyyyyyyyyyyy;O.",
".O3yyyyyyyyyyyyyyyyyyq03882223111111111122222227qyyyyyyyyyyyyyyyyyy;O.",
".O;qq057yyyyyyyyyyyyyyyyqyyyyyyyyyyyqyyyyyyyyyyyeyyyyyyyyyyye70e7eq;O.",
".O3e3&-->7yyyyyyyyyyyyyyyyyyyyyyyyyyyyyyyyyyyyyyyyyyyyyyyyyyy3--&3e3O.",
".O;7>X..&7yyyyyyyyyyyyyyyyyyyyyyyyyyyyyyyyyyyyyyyyyyyyyyyyyy5&..o&7;O.",
".O;7&...%7yyyyyyyyyyyyyyyyyyyyyyyyyyyyyyyyyyyyyyyyyyyyyyyyyq5&..o&7;O.",
".O;7<t.X-5yyyyyyyyyyyyyyyyyyyyyyyyyyyyyyyyyyyyyyyyyyyyyyyyyy5&ooo<7;t.",
".O3e3<<&37yyyyyyyyyyyyyyyyyyyyyyyyyyyyyyyyyyyyyyyyyyyyyyyyyye3&<<3y;t.",
".O;qe777qqyyyyyyyyyyyyyyyyyyyyyyyyyyyyyyyyyyyyyyyyyyyyyyyyyyqee7eyq;t.",
".X&;3;;;;;;;;;;;;;;;;;;;;;;;;;;;;;;;;;;;;;;;;;;;;;;;;;;;;;;;3;;;3;><X.",
"..XOttt@OOOOOOO@tOOOOOOOOOOOOOOOOOOOOOOOOOOOOOOOOOOOOOOOOOOOOOOOOO@X..",
"......................................................................"
};
